<svg xmlns="http://www.w3.org/2000/svg" viewBox="0 0 1597.87 2000.44"><defs><style>.cls-1{fill:#ebc813;}.cls-2{fill:#fff;}.cls-3{fill:#84511c;}</style></defs><title>0Fichier 1</title><g id="Calque_2" data-name="Calque 2"><g id="Calque_1-2" data-name="Calque 1"><path class="cls-1" d="M1598.76,734.06v74.65c-1,.95-.64,2.21-.66,3.34-.2,11.25-.95,22.47-1.81,33.69-2,26.28-5.11,52.43-8.43,78.56-2.61,20.54-5.78,41-8.46,61.55a942.19,942.19,0,0,1-17.59,94.3c-1.43,6-3,12.07-4.54,18.08-19.62,75.63-47.77,148-82.23,218.07a1404.5,1404.5,0,0,1-99.43,170.07,1555.55,1555.55,0,0,1-210.15,248.47q-47.94,46-100,87.37c-51.47,40.85-105.21,78.25-163.8,108.35-44.22,22.71-90.11,41-138.37,53.27a526.09,526.09,0,0,1-90.06,15c-5.31.39-10.62.77-15.93,1.2-.93.08-2.19-.26-2.38,1.28H600.76c-4.26-1.36-8.71-1-13.07-1.3a560.85,560.85,0,0,1-58.94-6.54c-32-5.5-63-14.2-91.53-30.29a4.76,4.76,0,0,1-.67-1.11c-3.62-12.82-8.1-25.37-12-38.1-8.36-27.28-17.16-54.43-25.78-81.64a138.72,138.72,0,0,1,16.44-15.53c15.16-12.42,31.79-22.65,48.65-32.54,13.52-7.94,27.46-15.17,40.48-23.94A1737.38,1737.38,0,0,0,659.6,1652.65c16.67-14.2,33.2-28.57,49.17-43.57.32-.35,1.19-.58.73-1.14s-1-.08-1.28.52c-1.56.09-2.72,1.1-4,1.78-21.69,11.52-43.66,22.47-66,32.67-41.21,18.81-83.24,35.45-126.92,47.73-45.76,12.86-92.27,21.07-139.87,22.22a446.75,446.75,0,0,1-83.61-5.46,504.92,504.92,0,0,1-98-26.09C156,1668.4,124,1652.22,98,1626.33l-4.68-111.87a125.13,125.13,0,0,1,18.86-10.77c14.88-7,30.45-12.18,46.16-17,13.29-4,26.78-7.47,39.79-12.39a1524.56,1524.56,0,0,0,173.75-78.43c4.38-2.32,8.71-4.74,13.06-7.11a5.49,5.49,0,0,0-3.25-.41c-8.91,1.47-17.9,2.38-26.88,3.15a449.65,449.65,0,0,1-77.58.36,350.93,350.93,0,0,1-67.55-12.24c-45-13.09-85.62-34.85-122.33-63.88-20-15.82-37.45-34-49.91-56.57,0-.44,0-.89.08-1.32q6.36-34.89,12.71-69.76c1.76-9.74,3.88-19.41,5.07-29.25.52-.28,1-.6,1.56-.83,16.82-7.19,34.68-9.69,52.66-11.62,11.77-1.26,23.64-1.71,35.31-3.76a1120.59,1120.59,0,0,0,112.42-25.59c41.57-11.81,82.55-25.34,122.35-42.26,46.93-20,91.86-43.79,135.28-70.45C599,952.7,676.67,892.9,745.91,822.33a650.14,650.14,0,0,0,77.71-95.14c23.37-35.12,43.88-71.94,64.24-108.84,18.81-34.08,37.32-68.32,57.8-101.44,16.84-27.23,34.86-53.64,55.47-78.19,14-16.64,29.06-32.32,42.51-49.42,9-11.45,17.14-23.42,23.18-36.7,4.43-9.74,8.08-19.81,8.56-30.6,1-22.18,1.64-44.36,2.51-66.54.18-4.58-.17-9.18.62-13.72,6.16,6.9,11.56,14.4,19.52,19.71,10.08,6.7,20.44,12.44,32.3,15.19a108.67,108.67,0,0,0,33.87,2.82,140.58,140.58,0,0,0,23.64-3.57c3.32-.86,3.31-.91,1.77-4-.2-.39-.42-.78-.63-1.17q-14.2-27.64-28.4-55.29c-.59-1.16-1.7-2.26-1.2-3.87,1.49.3,2.25,1.28,3.18,2,13.8,10.44,29.42,15.45,46.65,15.88,17.45.44,33.89-4,49.93-10.23,15.25-5.91,29.32-14.07,42.8-23.27.87,1.19,1.8,2.33,2.6,3.57q19.85,30.79,40.84,60.84c8.62,12.38,17.3,24.73,27,36.27,5.79,6.9,11.42,13.94,17.22,20.83q2,2.38,4,4.74c14.14,16.43,30.1,31,46.43,45.18a349.72,349.72,0,0,1,39.88,40.3q5.36,6.45,11.06,12.6a120.18,120.18,0,0,1,11.75,15.4c5.88,8.85,12,17.52,17.29,26.79,3.52,6.19,7,12.43,10.64,18.53,4.37,7.29,8,15,11.86,22.45a348.94,348.94,0,0,1,16.12,36.84c4.62,12.09,9,24.26,13.57,36.38a247.47,247.47,0,0,1,8.78,29.78,626.63,626.63,0,0,1,17,122.45C1598.09,730.6,1597.75,732.43,1598.76,734.06Z" transform="translate(-0.89 -0.89)"/><path class="cls-2" d="M1078.51,241.74c-.79,4.54-.44,9.14-.62,13.72-.87,22.18-1.52,44.36-2.51,66.54-.48,10.79-4.13,20.86-8.56,30.6-6,13.28-14.18,25.25-23.18,36.7-13.45,17.1-28.54,32.78-42.51,49.42-20.61,24.55-38.63,51-55.47,78.19-20.48,33.12-39,67.36-57.8,101.44-20.36,36.9-40.87,73.72-64.24,108.84a650.14,650.14,0,0,1-77.71,95.14C676.67,892.9,599,952.7,514.83,1004.36c-43.42,26.66-88.35,50.49-135.28,70.45-39.8,16.92-80.78,30.45-122.35,42.26a1120.59,1120.59,0,0,1-112.42,25.59c-11.67,2-23.54,2.5-35.31,3.76-18,1.93-35.84,4.43-52.66,11.62-.54.23-1,.55-1.56.83q-13.72.56-27.46,1.11c-1.92.08-3.83.31-5.74.38a2.27,2.27,0,0,0-2.38,2.1c-.54,2.45-1.23,4.87-1.86,7.3-4.81,18.57-9.57,37.15-14.48,55.69-.49,1.85-.13,4.28-2.44,5.39V.89h1182c.1,1.44-1.18,1.92-2,2.66q-60.41,55.94-120.94,111.73c-3,2.74-3.51,5.19-2.81,8.83,1.81,9.43,3.33,18.92,4.95,28.39q7.18,42,14.36,83.92A12.64,12.64,0,0,0,1078.51,241.74Z" transform="translate(-0.89 -0.89)"/><path class="cls-2" d="M655,2001.33c.19-1.54,1.45-1.2,2.38-1.28,5.31-.43,10.62-.81,15.93-1.2a526.09,526.09,0,0,0,90.06-15c48.26-12.22,94.15-30.56,138.37-53.27,58.59-30.1,112.33-67.5,163.8-108.35q52-41.32,100-87.37a1555.55,1555.55,0,0,0,210.15-248.47A1404.5,1404.5,0,0,0,1475,1316.3c34.46-70,62.61-142.44,82.23-218.07,1.56-6,3.11-12,4.54-18.08a942.19,942.19,0,0,0,17.59-94.3c2.68-20.53,5.85-41,8.46-61.55,3.32-26.13,6.42-52.28,8.43-78.56.86-11.22,1.61-22.44,1.81-33.69,0-1.13-.39-2.39.66-3.34V2001.33Z" transform="translate(-0.89 -0.89)"/><path class="cls-2" d="M708.77,1609.08c-16,15-32.5,29.37-49.17,43.57a1737.38,1737.38,0,0,1-155.26,117.69c-13,8.77-27,16-40.48,23.94-16.86,9.89-33.49,20.12-48.65,32.54a137.86,137.86,0,0,0-16.43,15.53q-20.86,10.82-41.71,21.63c-3,1.56-3,1.64-2.22,5.18,6.4,28.25,12.86,56.5,19.17,84.77.51,2.28,1.44,3.38,3.67,3.52.89,0,1.77.16,2.65.27l35.23,4.21c5.73.69,11.44,1.44,17.18,2,1.45.13,3.23,1.08,4.47-.69,28.53,16.09,59.49,24.79,91.53,30.29a560.85,560.85,0,0,0,58.94,6.54c4.36.29,8.81-.06,13.07,1.3H.89V1233.5c1.54.27,2.56,1.39,3.72,2.26,9.54,7.12,19.06,14.27,28.63,21.34,1.23.91,2.23,2.48,4.15,2.1,12.46,22.55,29.91,40.75,49.91,56.57,36.71,29,77.28,50.79,122.33,63.88a350.93,350.93,0,0,0,67.55,12.24,449.65,449.65,0,0,0,77.58-.36c9-.77,18-1.68,26.88-3.15a5.49,5.49,0,0,1,3.25.41c-4.35,2.37-8.68,4.79-13.06,7.11a1524.56,1524.56,0,0,1-173.75,78.43c-13,4.92-26.5,8.34-39.79,12.39-15.71,4.79-31.28,9.93-46.16,17a125.13,125.13,0,0,0-18.86,10.77c-12.59,3.14-25.19,6.25-37.78,9.41-4.4,1.1-4.38,1.14-4.56,5.51q-1,24.8-2,49.58-.51,13.07-1,26.12c-.06,1.67,0,3,2.07,3.76,15.26,5.83,30.46,11.84,45.67,17.8.83.32,1.64.8,2.26-.31,26.09,25.89,58,42.07,91.86,55a504.92,504.92,0,0,0,98,26.09,446.75,446.75,0,0,0,83.61,5.46c47.6-1.15,94.11-9.36,139.87-22.22,43.68-12.28,85.71-28.92,126.92-47.73,22.34-10.2,44.31-21.15,66-32.67,1.29-.68,2.45-1.69,4-1.78C708.39,1608.67,708.58,1608.88,708.77,1609.08Z" transform="translate(-0.89 -0.89)"/><path class="cls-2" d="M1598.76,734.06c-1-1.63-.67-3.46-.74-5.2a626.63,626.63,0,0,0-17-122.45,247.47,247.47,0,0,0-8.78-29.78c-4.55-12.12-9-24.29-13.57-36.38a348.94,348.94,0,0,0-16.12-36.84c-3.9-7.49-7.49-15.16-11.86-22.45-3.65-6.1-7.12-12.34-10.64-18.53-5.27-9.27-11.41-17.94-17.29-26.79a120.18,120.18,0,0,0-11.75-15.4q-5.7-6.17-11.06-12.6a349.72,349.72,0,0,0-39.88-40.3c-16.33-14.16-32.29-28.75-46.43-45.18q-2-2.36-4-4.74c-5.8-6.89-11.43-13.93-17.22-20.83-9.68-11.54-18.36-23.89-27-36.27q-20.93-30.07-40.84-60.84c-.8-1.24-1.73-2.38-2.6-3.57,2.44-1.53,1.65-3.08.39-5.09q-21.42-34.26-42.69-68.61-35-56.28-70-112.58c-1.77-2.85-4.06-5.42-5-8.74h414.13Z" transform="translate(-0.89 -0.89)"/><path class="cls-3" d="M1184.63.89c.95,3.32,3.24,5.89,5,8.74q35,56.33,70,112.58,21.33,34.32,42.69,68.61c1.26,2,2.05,3.56-.39,5.09-13.48,9.2-27.55,17.36-42.8,23.27-16,6.22-32.48,10.67-49.93,10.23-17.23-.43-32.85-5.44-46.65-15.88-.93-.7-1.69-1.68-3.18-2-.5,1.61.61,2.71,1.2,3.87q14.18,27.66,28.4,55.29c.21.39.43.78.63,1.17,1.54,3.1,1.55,3.15-1.77,4a140.58,140.58,0,0,1-23.64,3.57,108.67,108.67,0,0,1-33.87-2.82c-11.86-2.75-22.22-8.49-32.3-15.19-8-5.31-13.36-12.81-19.52-19.71a12.64,12.64,0,0,1-2.07-5.32q-7.17-42-14.36-83.92c-1.62-9.47-3.14-19-4.95-28.39-.7-3.64-.17-6.09,2.81-8.83q60.61-55.69,120.94-111.73c.79-.74,2.07-1.22,2-2.66Z" transform="translate(-0.89 -0.89)"/><path class="cls-3" d="M37.39,1259.2c-1.92.38-2.92-1.19-4.15-2.1-9.57-7.07-19.09-14.22-28.63-21.34-1.16-.87-2.18-2-3.72-2.26v-2.66c2.31-1.11,1.95-3.54,2.44-5.39,4.91-18.54,9.67-37.12,14.48-55.69.63-2.43,1.32-4.85,1.86-7.3a2.27,2.27,0,0,1,2.38-2.1c1.91-.07,3.82-.3,5.74-.38q13.73-.57,27.46-1.11c-1.19,9.84-3.31,19.51-5.07,29.25q-6.32,34.89-12.71,69.76C37.4,1258.31,37.42,1258.76,37.39,1259.2Z" transform="translate(-0.89 -0.89)"/><path class="cls-3" d="M437.22,1963.2c-1.24,1.77-3,.82-4.47.69-5.74-.52-11.45-1.27-17.18-2l-35.23-4.21c-.88-.11-1.76-.22-2.65-.27-2.23-.14-3.16-1.24-3.67-3.52-6.31-28.27-12.77-56.52-19.17-84.77-.8-3.54-.78-3.62,2.22-5.18q20.83-10.85,41.71-21.63c8.61,27.21,17.41,54.36,25.77,81.64,3.9,12.73,8.38,25.28,12,38.1A4.76,4.76,0,0,0,437.22,1963.2Z" transform="translate(-0.89 -0.89)"/><path class="cls-3" d="M98,1626.33c-.62,1.11-1.43.63-2.26.31-15.21-6-30.41-12-45.67-17.8-2.09-.8-2.13-2.09-2.07-3.76q.51-13,1-26.12,1-24.8,2-49.58c.18-4.37.16-4.41,4.56-5.51,12.59-3.16,25.19-6.27,37.78-9.41Z" transform="translate(-0.89 -0.89)"/><path class="cls-2" d="M708.22,1608.46c.27-.6.89-1,1.28-.52s-.41.79-.73,1.14C708.58,1608.88,708.39,1608.67,708.22,1608.46Z" transform="translate(-0.89 -0.89)"/></g></g></svg>