<svg xmlns="http://www.w3.org/2000/svg" viewBox="0 0 102.26349700066652 128" clip-path="url(#clip)" width="409.0539880026661" height="512"><defs><clipPath id="clip" clipPathUnits="objectBoundingBox"><rect x="0" y="0" width="102.26349700066652" height="128"/></clipPath></defs><rect x="0" y="0" width="102.26349700066652" height="128" fill="#ffffff"/><ellipse cx="74" cy="81" rx="65" ry="59" fill="rgb(239, 196, 1)" fill-opacity="0.66"/><ellipse cx="77" cy="19" rx="9" ry="17" fill="rgb(165, 139, 0)" fill-opacity="0.68"/><ellipse cx="99" cy="124" rx="27" ry="30" fill="rgb(255, 255, 255)" fill-opacity="0.92"/><ellipse cx="28" cy="38" rx="27" ry="28" fill="rgb(255, 255, 255)" fill-opacity="0.70"/><ellipse cx="28" cy="89" rx="64" ry="19" fill="rgb(240, 185, 0)" fill-opacity="0.54"/><ellipse cx="76" cy="66" rx="24" ry="42" fill="rgb(241, 202, 0)" fill-opacity="0.50"/><ellipse cx="47" cy="117" rx="16" ry="9" fill="rgb(252, 199, 0)" fill-opacity="0.66"/><path d="M108,59L65,136L146,113Z" fill="rgb(255, 254, 252)" fill-opacity="0.96"/><ellipse cx="4" cy="63" rx="26" ry="10" fill="rgb(255, 255, 255)" fill-opacity="0.72"/><ellipse cx="57" cy="64" rx="20" ry="12" fill="rgb(237, 191, 1)" fill-opacity="0.61"/><ellipse cx="51" cy="22" rx="15" ry="16" fill="rgb(255, 255, 255)" fill-opacity="0.50"/><ellipse cx="2" cy="90" rx="17" ry="6" fill="rgb(254, 255, 255)" fill-opacity="0.65"/><ellipse cx="88" cy="34" rx="9" ry="14" fill="rgb(212, 198, 0)" fill-opacity="0.57"/><ellipse cx="59" cy="102" rx="16" ry="18" fill="rgb(249, 204, 0)" fill-opacity="0.73"/><ellipse cx="75" cy="10" rx="7" ry="7" fill="rgb(84, 9, 0)" fill-opacity="0.46"/><ellipse cx="24" cy="112" rx="10" ry="4" fill="rgb(255, 255, 255)" fill-opacity="0.49"/><ellipse cx="72" cy="126" rx="14" ry="8" fill="rgb(255, 255, 255)" fill-opacity="0.71"/><ellipse cx="89" cy="50" rx="13" ry="27" fill="rgb(234, 202, 1)" fill-opacity="0.73"/><ellipse cx="31" cy="44" rx="20" ry="14" fill="rgb(255, 255, 255)" fill-opacity="0.53"/><ellipse cx="35" cy="125" rx="12" ry="12" fill="rgb(234, 183, 0)" fill-opacity="0.52"/><ellipse cx="23" cy="80" rx="20" ry="9" fill="rgb(233, 172, 0)" fill-opacity="0.63"/><ellipse cx="53" cy="31" rx="6" ry="12" fill="rgb(255, 255, 255)" fill-opacity="0.64"/><ellipse cx="22" cy="101" rx="19" ry="8" fill="rgb(228, 178, 18)" fill-opacity="0.52"/><ellipse cx="1" cy="91" rx="5" ry="11" fill="rgb(248, 255, 255)" fill-opacity="0.50"/><ellipse cx="81" cy="30" rx="11" ry="15" fill="rgb(218, 210, 18)" fill-opacity="0.57"/><ellipse cx="38" cy="75" rx="17" ry="10" fill="rgb(240, 192, 3)" fill-opacity="0.54"/><ellipse cx="65" cy="130" rx="14" ry="8" fill="rgb(255, 255, 255)" fill-opacity="0.62"/><path d="M24,118L42,106L31,106Z" fill="rgb(255, 255, 255)" fill-opacity="0.44"/><ellipse cx="95" cy="1" rx="16" ry="18" fill="rgb(254, 254, 255)" fill-opacity="0.58"/><ellipse cx="58" cy="61" rx="9" ry="20" fill="rgb(237, 196, 25)" fill-opacity="0.56"/><ellipse cx="1" cy="120" rx="14" ry="18" fill="rgb(252, 253, 255)" fill-opacity="0.50"/><path d="M35,112L23,116L46,101Z" fill="rgb(255, 254, 255)" fill-opacity="0.54"/><ellipse cx="84" cy="75" rx="12" ry="19" fill="rgb(253, 205, 0)" fill-opacity="0.50"/><ellipse cx="77" cy="119" rx="10" ry="6" fill="rgb(255, 255, 255)" fill-opacity="0.60"/><ellipse cx="56" cy="24" rx="9" ry="9" fill="rgb(255, 255, 255)" fill-opacity="0.51"/><path d="M95,28L132,59L63,-17Z" fill="rgb(250, 251, 255)" fill-opacity="0.60"/><ellipse cx="39" cy="69" rx="8" ry="8" fill="rgb(236, 178, 0)" fill-opacity="0.55"/><ellipse cx="32" cy="52" rx="12" ry="11" fill="rgb(255, 255, 255)" fill-opacity="0.45"/><ellipse cx="27" cy="123" rx="4" ry="3" fill="rgb(152, 94, 0)" fill-opacity="0.51"/><path d="M67,7L77,0L75,30Z" fill="rgb(147, 106, 20)" fill-opacity="0.51"/><ellipse cx="24" cy="129" rx="7" ry="4" fill="rgb(251, 255, 255)" fill-opacity="0.65"/><ellipse cx="22" cy="51" rx="15" ry="18" fill="rgb(255, 255, 255)" fill-opacity="0.45"/><ellipse cx="79" cy="31" rx="13" ry="16" fill="rgb(220, 205, 20)" fill-opacity="0.52"/><ellipse cx="70" cy="96" rx="13" ry="15" fill="rgb(252, 207, 0)" fill-opacity="0.62"/><ellipse cx="65" cy="52" rx="17" ry="5" fill="rgb(236, 201, 15)" fill-opacity="0.53"/><path d="M99,30L124,11L101,41Z" fill="rgb(250, 255, 255)" fill-opacity="0.68"/><ellipse cx="22" cy="101" rx="15" ry="9" fill="rgb(243, 199, 33)" fill-opacity="0.50"/><ellipse cx="42" cy="40" rx="12" ry="14" fill="rgb(255, 255, 255)" fill-opacity="0.60"/><ellipse cx="37" cy="122" rx="11" ry="5" fill="rgb(255, 206, 0)" fill-opacity="0.49"/><path d="M27,117L-29,128L30,108Z" fill="rgb(254, 254, 251)" fill-opacity="0.91"/><ellipse cx="58" cy="20" rx="11" ry="9" fill="rgb(255, 255, 255)" fill-opacity="0.61"/><ellipse cx="55" cy="85" rx="18" ry="16" fill="rgb(244, 207, 32)" fill-opacity="0.54"/><ellipse cx="102" cy="88" rx="5" ry="22" fill="rgb(255, 255, 255)" fill-opacity="0.49"/><ellipse cx="75" cy="36" rx="15" ry="12" fill="rgb(230, 205, 19)" fill-opacity="0.54"/><path d="M-4,94L-78,86L33,134Z" fill="rgb(253, 252, 252)" fill-opacity="0.94"/><ellipse cx="41" cy="119" rx="13" ry="8" fill="rgb(253, 208, 0)" fill-opacity="0.50"/><ellipse cx="16" cy="79" rx="16" ry="5" fill="rgb(226, 166, 0)" fill-opacity="0.54"/><ellipse cx="7" cy="90" rx="17" ry="1" fill="rgb(255, 255, 255)" fill-opacity="0.59"/><path d="M81,103L113,80L37,158Z" fill="rgb(255, 255, 255)" fill-opacity="0.54"/><ellipse cx="16" cy="83" rx="9" ry="5" fill="rgb(233, 164, 0)" fill-opacity="0.56"/><ellipse cx="0" cy="77" rx="4" ry="3" fill="rgb(91, 42, 40)" fill-opacity="0.41"/><ellipse cx="26" cy="101" rx="15" ry="8" fill="rgb(239, 191, 32)" fill-opacity="0.69"/><ellipse cx="49" cy="68" rx="12" ry="13" fill="rgb(240, 197, 19)" fill-opacity="0.62"/><ellipse cx="2" cy="67" rx="18" ry="7" fill="rgb(255, 255, 255)" fill-opacity="0.58"/><path d="M52,147L39,129L63,124Z" fill="rgb(255, 255, 253)" fill-opacity="0.79"/><path d="M25,122L20,121L28,116Z" fill="rgb(180, 144, 91)" fill-opacity="0.51"/><ellipse cx="85" cy="77" rx="12" ry="11" fill="rgb(247, 202, 0)" fill-opacity="0.55"/><ellipse cx="73" cy="101" rx="8" ry="9" fill="rgb(248, 194, 0)" fill-opacity="0.50"/><ellipse cx="73" cy="92" rx="15" ry="13" fill="rgb(251, 209, 2)" fill-opacity="0.49"/><ellipse cx="30" cy="50" rx="16" ry="12" fill="rgb(255, 255, 255)" fill-opacity="0.52"/><ellipse cx="2" cy="91" rx="16" ry="4" fill="rgb(255, 255, 255)" fill-opacity="0.49"/><ellipse cx="72" cy="57" rx="12" ry="24" fill="rgb(245, 218, 30)" fill-opacity="0.38"/><path d="M3,96L8,102L3,104Z" fill="rgb(106, 46, 0)" fill-opacity="0.52"/><path d="M100,75L118,17L101,61Z" fill="rgb(254, 252, 240)" fill-opacity="0.63"/><path d="M28,68L39,60L53,69Z" fill="rgb(240, 193, 14)" fill-opacity="0.77"/><path d="M72,23L78,7L74,-8Z" fill="rgb(118, 65, 19)" fill-opacity="0.45"/><ellipse cx="17" cy="85" rx="7" ry="4" fill="rgb(231, 169, 0)" fill-opacity="0.53"/><path d="M-11,78L-2,98L21,92Z" fill="rgb(255, 255, 255)" fill-opacity="0.54"/><path d="M71,39L40,64L55,43Z" fill="rgb(235, 193, 9)" fill-opacity="0.53"/><ellipse cx="0" cy="90" rx="5" ry="11" fill="rgb(254, 255, 255)" fill-opacity="0.46"/><ellipse cx="77" cy="123" rx="11" ry="11" fill="rgb(255, 255, 255)" fill-opacity="0.51"/><ellipse cx="57" cy="113" rx="9" ry="10" fill="rgb(250, 200, 0)" fill-opacity="0.53"/><path d="M59,90L75,46L35,105Z" fill="rgb(230, 176, 35)" fill-opacity="0.49"/><path d="M75,12L76,22L67,11Z" fill="rgb(114, 77, 21)" fill-opacity="0.40"/><ellipse cx="76" cy="28" rx="8" ry="10" fill="rgb(218, 211, 32)" fill-opacity="0.48"/><ellipse cx="103" cy="21" rx="9" ry="12" fill="rgb(255, 255, 255)" fill-opacity="0.49"/><path d="M21,73L15,81L5,73Z" fill="rgb(244, 200, 6)" fill-opacity="0.57"/><path d="M102,61L120,81L99,75Z" fill="rgb(255, 255, 255)" fill-opacity="1.00"/><ellipse cx="1" cy="59" rx="1" ry="18" fill="rgb(251, 250, 250)" fill-opacity="0.65"/><path d="M82,104L63,119L80,83Z" fill="rgb(248, 196, 0)" fill-opacity="0.52"/><ellipse cx="50" cy="24" rx="13" ry="16" fill="rgb(255, 255, 255)" fill-opacity="0.53"/><path d="M10,96L48,77L32,96Z" fill="rgb(248, 219, 37)" fill-opacity="0.69"/><ellipse cx="37" cy="39" rx="16" ry="19" fill="rgb(255, 255, 255)" fill-opacity="0.51"/><ellipse cx="100" cy="29" rx="2" ry="5" fill="rgb(255, 255, 255)" fill-opacity="0.50"/><ellipse cx="69" cy="128" rx="20" ry="4" fill="rgb(255, 255, 255)" fill-opacity="0.60"/><ellipse cx="51" cy="117" rx="9" ry="9" fill="rgb(249, 200, 0)" fill-opacity="0.58"/><path d="M8,104L5,104L4,97Z" fill="rgb(148, 96, 14)" fill-opacity="0.53"/><path d="M1,77L1,32L-25,76Z" fill="rgb(255, 255, 255)" fill-opacity="1.00"/><ellipse cx="85" cy="26" rx="4" ry="10" fill="rgb(202, 194, 15)" fill-opacity="0.48"/><ellipse cx="36" cy="72" rx="17" ry="5" fill="rgb(239, 190, 11)" fill-opacity="0.50"/><ellipse cx="47" cy="34" rx="10" ry="14" fill="rgb(255, 255, 255)" fill-opacity="0.53"/><path d="M50,83L72,46L42,75Z" fill="rgb(248, 225, 46)" fill-opacity="0.42"/><ellipse cx="55" cy="20" rx="14" ry="9" fill="rgb(254, 255, 254)" fill-opacity="0.53"/><ellipse cx="69" cy="38" rx="11" ry="7" fill="rgb(228, 198, 22)" fill-opacity="0.50"/><ellipse cx="93" cy="8" rx="8" ry="15" fill="rgb(255, 255, 252)" fill-opacity="0.56"/><path d="M71,14L84,14L81,8Z" fill="rgb(98, 54, 4)" fill-opacity="0.56"/><path d="M38,109L43,104L27,112Z" fill="rgb(255, 255, 255)" fill-opacity="0.67"/><ellipse cx="11" cy="117" rx="13" ry="8" fill="rgb(255, 255, 255)" fill-opacity="0.52"/><ellipse cx="80" cy="43" rx="5" ry="21" fill="rgb(251, 226, 18)" fill-opacity="0.44"/><ellipse cx="95" cy="0" rx="18" ry="12" fill="rgb(255, 254, 255)" fill-opacity="0.50"/><ellipse cx="59" cy="16" rx="10" ry="10" fill="rgb(255, 255, 255)" fill-opacity="0.47"/><path d="M36,82L16,86L60,54Z" fill="rgb(231, 166, 0)" fill-opacity="0.60"/><ellipse cx="35" cy="99" rx="12" ry="7" fill="rgb(236, 185, 32)" fill-opacity="0.52"/><ellipse cx="21" cy="52" rx="18" ry="16" fill="rgb(255, 255, 255)" fill-opacity="0.60"/><ellipse cx="95" cy="65" rx="4" ry="15" fill="rgb(243, 194, 0)" fill-opacity="0.50"/><ellipse cx="71" cy="80" rx="6" ry="10" fill="rgb(255, 226, 12)" fill-opacity="0.43"/><path d="M27,110L14,142L10,109Z" fill="rgb(254, 254, 253)" fill-opacity="0.69"/><path d="M28,127L27,119L21,118Z" fill="rgb(121, 71, 17)" fill-opacity="0.39"/><ellipse cx="91" cy="64" rx="10" ry="12" fill="rgb(242, 198, 1)" fill-opacity="0.50"/><ellipse cx="98" cy="50" rx="12" ry="9" fill="rgb(230, 193, 0)" fill-opacity="0.48"/><ellipse cx="51" cy="4" rx="18" ry="11" fill="rgb(255, 254, 255)" fill-opacity="0.58"/><ellipse cx="15" cy="75" rx="13" ry="2" fill="rgb(242, 201, 13)" fill-opacity="0.54"/><ellipse cx="84" cy="30" rx="14" ry="5" fill="rgb(213, 198, 21)" fill-opacity="0.49"/><path d="M6,98L32,86L8,106Z" fill="rgb(245, 209, 27)" fill-opacity="0.59"/><ellipse cx="19" cy="90" rx="4" ry="1" fill="rgb(255, 255, 254)" fill-opacity="0.71"/><ellipse cx="9" cy="61" rx="19" ry="11" fill="rgb(255, 255, 255)" fill-opacity="0.51"/><path d="M4,77L47,67L20,70Z" fill="rgb(243, 202, 20)" fill-opacity="0.57"/><path d="M59,123L40,107L33,132Z" fill="rgb(249, 203, 0)" fill-opacity="0.62"/><ellipse cx="92" cy="37" rx="8" ry="9" fill="rgb(217, 194, 10)" fill-opacity="0.54"/><ellipse cx="32" cy="130" rx="4" ry="3" fill="rgb(255, 255, 255)" fill-opacity="0.53"/><path d="M44,105L90,50L51,115Z" fill="rgb(251, 218, 15)" fill-opacity="0.71"/><path d="M66,41L71,19L60,34Z" fill="rgb(220, 192, 16)" fill-opacity="0.60"/><ellipse cx="14" cy="121" rx="9" ry="9" fill="rgb(255, 255, 255)" fill-opacity="0.50"/><ellipse cx="91" cy="119" rx="14" ry="21" fill="rgb(255, 255, 255)" fill-opacity="0.51"/><ellipse cx="64" cy="18" rx="5" ry="7" fill="rgb(255, 255, 255)" fill-opacity="0.53"/><ellipse cx="64" cy="124" rx="5" ry="3" fill="rgb(255, 255, 255)" fill-opacity="0.50"/><ellipse cx="95" cy="15" rx="7" ry="9" fill="rgb(255, 255, 255)" fill-opacity="0.50"/><path d="M-29,92L30,114L9,130Z" fill="rgb(255, 254, 252)" fill-opacity="0.64"/><ellipse cx="50" cy="57" rx="3" ry="6" fill="rgb(238, 189, 4)" fill-opacity="0.48"/><path d="M56,40L57,57L69,30Z" fill="rgb(224, 177, 1)" fill-opacity="0.48"/><ellipse cx="17" cy="84" rx="8" ry="5" fill="rgb(233, 171, 0)" fill-opacity="0.53"/><ellipse cx="57" cy="112" rx="16" ry="5" fill="rgb(250, 202, 0)" fill-opacity="0.49"/><path d="M103,21L82,-2L83,13Z" fill="rgb(254, 255, 254)" fill-opacity="0.54"/><ellipse cx="84" cy="78" rx="10" ry="18" fill="rgb(247, 202, 3)" fill-opacity="0.47"/><ellipse cx="62" cy="3" rx="9" ry="5" fill="rgb(255, 255, 255)" fill-opacity="0.50"/><path d="M77,79L60,122L67,117Z" fill="rgb(248, 200, 2)" fill-opacity="0.84"/><ellipse cx="19" cy="103" rx="11" ry="6" fill="rgb(236, 186, 32)" fill-opacity="0.58"/><path d="M24,120L58,109L42,106Z" fill="rgb(252, 222, 20)" fill-opacity="0.56"/><ellipse cx="94" cy="96" rx="4" ry="9" fill="rgb(255, 255, 255)" fill-opacity="0.50"/><ellipse cx="76" cy="63" rx="3" ry="19" fill="rgb(249, 219, 16)" fill-opacity="0.67"/><path d="M31,127L28,125L75,95Z" fill="rgb(249, 199, 0)" fill-opacity="0.82"/><path d="M35,80L36,93L53,75Z" fill="rgb(247, 216, 34)" fill-opacity="0.55"/><path d="M50,68L58,55L56,45Z" fill="rgb(230, 169, 0)" fill-opacity="0.49"/><path d="M5,83L-28,95L6,97Z" fill="rgb(255, 255, 255)" fill-opacity="0.53"/><ellipse cx="98" cy="82" rx="2" ry="5" fill="rgb(255, 255, 255)" fill-opacity="0.53"/><path d="M76,17L83,13L97,32Z" fill="rgb(193, 196, 13)" fill-opacity="0.57"/><path d="M75,53L75,19L68,69Z" fill="rgb(212, 180, 36)" fill-opacity="0.46"/><path d="M67,118L10,154L154,74Z" fill="rgb(254, 254, 250)" fill-opacity="0.93"/><path d="M83,103L70,115L58,101Z" fill="rgb(249, 201, 6)" fill-opacity="0.48"/><path d="M155,-35L102,39L83,-1Z" fill="rgb(254, 254, 252)" fill-opacity="1.00"/><ellipse cx="34" cy="44" rx="8" ry="19" fill="rgb(255, 255, 255)" fill-opacity="0.54"/><ellipse cx="90" cy="114" rx="10" ry="17" fill="rgb(255, 255, 255)" fill-opacity="0.56"/><ellipse cx="93" cy="109" rx="16" ry="5" fill="rgb(255, 255, 255)" fill-opacity="0.51"/><path d="M-4,84L21,91L-8,101Z" fill="rgb(255, 255, 253)" fill-opacity="0.57"/><path d="M35,85L51,87L19,92Z" fill="rgb(244, 209, 28)" fill-opacity="0.50"/><path d="M64,31L61,33L61,31Z" fill="rgb(231, 198, 0)" fill-opacity="0.58"/><ellipse cx="46" cy="34" rx="10" ry="16" fill="rgb(255, 254, 255)" fill-opacity="0.64"/><path d="M33,64L11,79L42,69Z" fill="rgb(243, 199, 15)" fill-opacity="0.50"/><ellipse cx="58" cy="12" rx="10" ry="20" fill="rgb(255, 255, 255)" fill-opacity="0.50"/><ellipse cx="6" cy="60" rx="19" ry="13" fill="rgb(255, 255, 255)" fill-opacity="0.50"/><ellipse cx="5" cy="98" rx="1" ry="1" fill="rgb(147, 92, 37)" fill-opacity="0.99"/><ellipse cx="5" cy="125" rx="13" ry="20" fill="rgb(255, 255, 255)" fill-opacity="0.55"/><ellipse cx="100" cy="77" rx="2" ry="6" fill="rgb(255, 254, 251)" fill-opacity="0.50"/><ellipse cx="38" cy="127" rx="4" ry="10" fill="rgb(249, 198, 0)" fill-opacity="0.71"/><path d="M2,81L-29,58L16,95Z" fill="rgb(255, 255, 255)" fill-opacity="0.65"/><path d="M51,50L40,60L47,69Z" fill="rgb(241, 196, 7)" fill-opacity="0.44"/><ellipse cx="44" cy="38" rx="13" ry="6" fill="rgb(255, 255, 255)" fill-opacity="0.50"/><ellipse cx="87" cy="120" rx="18" ry="11" fill="rgb(255, 255, 255)" fill-opacity="0.53"/><path d="M53,44L53,47L31,49Z" fill="rgb(255, 255, 255)" fill-opacity="0.73"/><ellipse cx="6" cy="78" rx="3" ry="4" fill="rgb(242, 182, 0)" fill-opacity="0.51"/><path d="M74,56L30,104L47,104Z" fill="rgb(236, 186, 31)" fill-opacity="0.63"/><ellipse cx="98" cy="39" rx="3" ry="3" fill="rgb(218, 196, 7)" fill-opacity="0.51"/><path d="M72,3L84,13L75,2Z" fill="rgb(127, 74, 29)" fill-opacity="0.53"/><ellipse cx="83" cy="118" rx="8" ry="13" fill="rgb(255, 255, 255)" fill-opacity="0.50"/><ellipse cx="4" cy="117" rx="2" ry="14" fill="rgb(255, 255, 255)" fill-opacity="0.50"/><ellipse cx="2" cy="93" rx="1" ry="12" fill="rgb(255, 255, 255)" fill-opacity="1.00"/><ellipse cx="25" cy="123" rx="2" ry="2" fill="rgb(88, 37, 22)" fill-opacity="0.50"/><path d="M29,109L41,104L18,100Z" fill="rgb(236, 184, 26)" fill-opacity="0.51"/><ellipse cx="70" cy="36" rx="1" ry="20" fill="rgb(227, 206, 29)" fill-opacity="0.62"/><path d="M79,15L76,1L80,7Z" fill="rgb(112, 65, 22)" fill-opacity="0.47"/><path d="M23,99L52,72L14,95Z" fill="rgb(246, 213, 33)" fill-opacity="0.57"/><ellipse cx="74" cy="12" rx="3" ry="6" fill="rgb(131, 79, 26)" fill-opacity="0.53"/><ellipse cx="96" cy="20" rx="4" ry="6" fill="rgb(255, 255, 255)" fill-opacity="0.56"/><ellipse cx="59" cy="113" rx="13" ry="3" fill="rgb(248, 197, 0)" fill-opacity="0.50"/><ellipse cx="27" cy="55" rx="16" ry="7" fill="rgb(254, 254, 255)" fill-opacity="0.50"/><ellipse cx="33" cy="122" rx="6" ry="5" fill="rgb(249, 204, 3)" fill-opacity="0.74"/><ellipse cx="52" cy="26" rx="9" ry="14" fill="rgb(255, 255, 255)" fill-opacity="0.57"/><ellipse cx="67" cy="85" rx="4" ry="9" fill="rgb(252, 220, 16)" fill-opacity="0.52"/><ellipse cx="77" cy="66" rx="7" ry="6" fill="rgb(250, 220, 16)" fill-opacity="0.53"/><path d="M59,78L53,65L73,26Z" fill="rgb(243, 216, 37)" fill-opacity="0.52"/><ellipse cx="80" cy="32" rx="4" ry="8" fill="rgb(241, 221, 22)" fill-opacity="0.51"/><ellipse cx="-3" cy="80" rx="4" ry="1" fill="rgb(255, 255, 255)" fill-opacity="0.62"/><path d="M79,7L78,15L74,-4Z" fill="rgb(127, 76, 27)" fill-opacity="0.50"/><ellipse cx="76" cy="21" rx="7" ry="3" fill="rgb(201, 206, 29)" fill-opacity="0.50"/><path d="M0,73L8,87L9,80Z" fill="rgb(214, 150, 0)" fill-opacity="0.46"/><path d="M101,82L125,36L101,60Z" fill="rgb(255, 255, 255)" fill-opacity="0.76"/><ellipse cx="89" cy="76" rx="2" ry="17" fill="rgb(245, 197, 0)" fill-opacity="0.51"/><path d="M42,108L46,102L43,104Z" fill="rgb(254, 232, 98)" fill-opacity="0.56"/><ellipse cx="89" cy="29" rx="7" ry="5" fill="rgb(210, 196, 16)" fill-opacity="0.50"/><path d="M101,23L109,28L101,42Z" fill="rgb(254, 253, 249)" fill-opacity="0.64"/><ellipse cx="0" cy="56" rx="22" ry="18" fill="rgb(255, 255, 255)" fill-opacity="0.50"/><path d="M84,100L71,114L101,62Z" fill="rgb(248, 198, 0)" fill-opacity="0.55"/><ellipse cx="97" cy="45" rx="12" ry="4" fill="rgb(230, 197, 6)" fill-opacity="0.53"/><path d="M86,61L79,73L100,74Z" fill="rgb(244, 200, 3)" fill-opacity="0.62"/><ellipse cx="99" cy="94" rx="9" ry="8" fill="rgb(255, 255, 255)" fill-opacity="0.50"/><path d="M21,109L16,97L26,111Z" fill="rgb(238, 191, 41)" fill-opacity="0.47"/><ellipse cx="67" cy="107" rx="9" ry="7" fill="rgb(249, 198, 0)" fill-opacity="0.50"/><ellipse cx="18" cy="81" rx="14" ry="7" fill="rgb(236, 174, 0)" fill-opacity="0.41"/><path d="M63,101L46,104L66,78Z" fill="rgb(253, 221, 16)" fill-opacity="0.48"/><path d="M87,29L79,14L98,29Z" fill="rgb(199, 195, 20)" fill-opacity="0.47"/><ellipse cx="28" cy="61" rx="9" ry="3" fill="rgb(254, 254, 253)" fill-opacity="0.54"/><path d="M56,40L62,30L57,16Z" fill="rgb(254, 254, 253)" fill-opacity="0.61"/><ellipse cx="86" cy="85" rx="8" ry="5" fill="rgb(248, 199, 1)" fill-opacity="0.53"/><path d="M66,9L65,-5L79,-4Z" fill="rgb(254, 254, 254)" fill-opacity="1.00"/><ellipse cx="16" cy="66" rx="11" ry="4" fill="rgb(255, 255, 255)" fill-opacity="0.50"/><ellipse cx="33" cy="78" rx="5" ry="5" fill="rgb(233, 169, 0)" fill-opacity="0.48"/><path d="M24,77L23,69L3,77Z" fill="rgb(245, 206, 25)" fill-opacity="0.49"/><path d="M24,119L26,117L26,124Z" fill="rgb(120, 65, 40)" fill-opacity="0.48"/><ellipse cx="95" cy="4" rx="17" ry="3" fill="rgb(255, 255, 255)" fill-opacity="0.50"/><path d="M49,69L42,76L56,51Z" fill="rgb(229, 165, 0)" fill-opacity="0.52"/><path d="M71,17L77,19L75,35Z" fill="rgb(180, 182, 38)" fill-opacity="0.50"/><ellipse cx="98" cy="19" rx="8" ry="7" fill="rgb(254, 255, 255)" fill-opacity="0.47"/><path d="M72,18L55,51L57,39Z" fill="rgb(235, 208, 22)" fill-opacity="0.57"/><ellipse cx="75" cy="116" rx="2" ry="5" fill="rgb(255, 254, 252)" fill-opacity="0.52"/><ellipse cx="82" cy="52" rx="3" ry="13" fill="rgb(246, 218, 19)" fill-opacity="0.50"/><path d="M7,115L32,129L-2,141Z" fill="rgb(255, 255, 255)" fill-opacity="0.57"/><path d="M73,4L71,5L77,19Z" fill="rgb(172, 126, 39)" fill-opacity="0.49"/><ellipse cx="56" cy="49" rx="6" ry="1" fill="rgb(236, 190, 11)" fill-opacity="0.52"/><ellipse cx="101" cy="81" rx="2" ry="15" fill="rgb(255, 254, 253)" fill-opacity="0.51"/><ellipse cx="84" cy="10" rx="2" ry="1" fill="rgb(255, 255, 255)" fill-opacity="0.58"/><path d="M3,78L1,79L3,75Z" fill="rgb(63, 12, 1)" fill-opacity="0.51"/><path d="M37,110L32,108L13,124Z" fill="rgb(255, 255, 252)" fill-opacity="0.76"/><ellipse cx="79" cy="57" rx="6" ry="17" fill="rgb(247, 216, 16)" fill-opacity="0.50"/><ellipse cx="4" cy="109" rx="2" ry="6" fill="rgb(255, 255, 255)" fill-opacity="0.59"/><ellipse cx="100" cy="50" rx="15" ry="9" fill="rgb(234, 198, 5)" fill-opacity="0.60"/><path d="M64,29L64,27L92,22Z" fill="rgb(211, 199, 28)" fill-opacity="0.50"/><ellipse cx="62" cy="109" rx="4" ry="12" fill="rgb(249, 201, 1)" fill-opacity="0.58"/><path d="M76,19L70,16L74,13Z" fill="rgb(91, 45, 5)" fill-opacity="0.53"/><ellipse cx="99" cy="1" rx="19" ry="18" fill="rgb(255, 255, 255)" fill-opacity="0.50"/><path d="M76,2L74,10L76,-11Z" fill="rgb(156, 100, 47)" fill-opacity="0.54"/><path d="M63,123L73,166L51,126Z" fill="rgb(255, 254, 250)" fill-opacity="0.46"/><ellipse cx="32" cy="59" rx="5" ry="5" fill="rgb(255, 255, 255)" fill-opacity="0.49"/><ellipse cx="54" cy="38" rx="2" ry="5" fill="rgb(254, 254, 252)" fill-opacity="0.50"/><ellipse cx="71" cy="34" rx="2" ry="17" fill="rgb(230, 211, 35)" fill-opacity="0.50"/><ellipse cx="20" cy="59" rx="13" ry="10" fill="rgb(255, 255, 255)" fill-opacity="0.50"/><path d="M30,124L30,115L64,91Z" fill="rgb(254, 221, 17)" fill-opacity="0.45"/><ellipse cx="25" cy="114" rx="2" ry="4" fill="rgb(255, 255, 255)" fill-opacity="0.49"/><ellipse cx="96" cy="107" rx="17" ry="5" fill="rgb(255, 254, 254)" fill-opacity="0.51"/><ellipse cx="101" cy="98" rx="10" ry="18" fill="rgb(255, 255, 255)" fill-opacity="0.50"/><path d="M87,96L80,109L105,95Z" fill="rgb(255, 255, 255)" fill-opacity="0.50"/><path d="M22,88L62,49L29,87Z" fill="rgb(232, 171, 0)" fill-opacity="0.68"/><path d="M62,88L68,96L27,121Z" fill="rgb(252, 219, 14)" fill-opacity="0.54"/><ellipse cx="89" cy="29" rx="4" ry="8" fill="rgb(213, 196, 15)" fill-opacity="0.50"/><path d="M77,128L46,127L45,167Z" fill="rgb(255, 255, 255)" fill-opacity="0.61"/><ellipse cx="8" cy="81" rx="2" ry="5" fill="rgb(235, 176, 1)" fill-opacity="0.47"/><path d="M26,119L47,127L59,123Z" fill="rgb(249, 199, 0)" fill-opacity="0.65"/><ellipse cx="91" cy="31" rx="6" ry="6" fill="rgb(214, 196, 14)" fill-opacity="0.50"/><path d="M53,47L37,66L55,54Z" fill="rgb(242, 201, 12)" fill-opacity="0.54"/><path d="M26,118L20,108L12,116Z" fill="rgb(255, 254, 252)" fill-opacity="0.70"/><ellipse cx="27" cy="125" rx="1" ry="1" fill="rgb(41, 1, 0)" fill-opacity="0.39"/><path d="M80,13L83,13L80,7Z" fill="rgb(77, 33, 0)" fill-opacity="0.48"/><ellipse cx="94" cy="7" rx="14" ry="4" fill="rgb(254, 254, 255)" fill-opacity="0.50"/><path d="M92,24L72,12L81,23Z" fill="rgb(198, 189, 19)" fill-opacity="0.55"/><ellipse cx="64" cy="15" rx="5" ry="4" fill="rgb(254, 253, 253)" fill-opacity="0.52"/><path d="M48,83L22,92L66,59Z" fill="rgb(246, 214, 34)" fill-opacity="0.58"/><ellipse cx="75" cy="120" rx="9" ry="6" fill="rgb(255, 254, 252)" fill-opacity="0.50"/><path d="M49,52L51,41L32,62Z" fill="rgb(255, 255, 254)" fill-opacity="0.57"/><ellipse cx="104" cy="13" rx="15" ry="17" fill="rgb(254, 254, 254)" fill-opacity="0.47"/><ellipse cx="36" cy="36" rx="19" ry="20" fill="rgb(255, 255, 255)" fill-opacity="0.54"/><path d="M85,100L85,99L66,102Z" fill="rgb(249, 198, 0)" fill-opacity="0.47"/><ellipse cx="58" cy="26" rx="6" ry="6" fill="rgb(255, 255, 255)" fill-opacity="0.50"/><path d="M66,23L43,48L68,23Z" fill="rgb(255, 255, 255)" fill-opacity="0.58"/><ellipse cx="15" cy="127" rx="13" ry="3" fill="rgb(254, 253, 254)" fill-opacity="0.50"/><ellipse cx="-1" cy="118" rx="19" ry="14" fill="rgb(255, 255, 255)" fill-opacity="0.56"/><path d="M53,107L37,119L41,142Z" fill="rgb(249, 200, 1)" fill-opacity="0.60"/><ellipse cx="15" cy="80" rx="14" ry="1" fill="rgb(230, 168, 1)" fill-opacity="0.57"/><path d="M13,95L3,93L6,89Z" fill="rgb(255, 255, 255)" fill-opacity="0.48"/><ellipse cx="53" cy="7" rx="15" ry="27" fill="rgb(255, 255, 255)" fill-opacity="0.54"/><ellipse cx="70" cy="124" rx="12" ry="3" fill="rgb(255, 255, 255)" fill-opacity="0.50"/><ellipse cx="99" cy="43" rx="2" ry="8" fill="rgb(223, 198, 11)" fill-opacity="0.51"/><ellipse cx="15" cy="104" rx="6" ry="4" fill="rgb(236, 185, 30)" fill-opacity="0.54"/><path d="M10,94L25,110L23,110Z" fill="rgb(238, 191, 29)" fill-opacity="0.73"/><ellipse cx="2" cy="109" rx="7" ry="6" fill="rgb(253, 253, 255)" fill-opacity="0.46"/><ellipse cx="11" cy="94" rx="1" ry="1" fill="rgb(255, 255, 255)" fill-opacity="1.00"/><ellipse cx="30" cy="120" rx="4" ry="5" fill="rgb(249, 208, 3)" fill-opacity="0.47"/><ellipse cx="66" cy="16" rx="3" ry="3" fill="rgb(255, 255, 255)" fill-opacity="0.53"/><path d="M76,82L75,49L63,99Z" fill="rgb(251, 218, 16)" fill-opacity="0.60"/><ellipse cx="90" cy="70" rx="7" ry="18" fill="rgb(244, 199, 1)" fill-opacity="0.53"/><path d="M48,84L30,97L52,98Z" fill="rgb(237, 186, 30)" fill-opacity="0.59"/><path d="M68,33L72,44L62,46Z" fill="rgb(238, 215, 35)" fill-opacity="0.55"/><path d="M55,125L68,116L30,125Z" fill="rgb(249, 199, 0)" fill-opacity="0.54"/><path d="M95,160L115,67L86,98Z" fill="rgb(255, 255, 255)" fill-opacity="0.76"/><ellipse cx="81" cy="116" rx="10" ry="6" fill="rgb(255, 254, 253)" fill-opacity="0.50"/><ellipse cx="95" cy="99" rx="3" ry="15" fill="rgb(255, 255, 254)" fill-opacity="0.47"/><path d="M80,94L83,60L90,93Z" fill="rgb(247, 200, 1)" fill-opacity="0.67"/><ellipse cx="39" cy="45" rx="12" ry="11" fill="rgb(255, 255, 255)" fill-opacity="0.50"/><path d="M48,101L75,37L69,70Z" fill="rgb(232, 187, 32)" fill-opacity="0.68"/><ellipse cx="93" cy="112" rx="14" ry="13" fill="rgb(255, 255, 255)" fill-opacity="0.52"/><ellipse cx="14" cy="56" rx="18" ry="15" fill="rgb(255, 255, 255)" fill-opacity="0.56"/><ellipse cx="74" cy="9" rx="6" ry="4" fill="rgb(139, 77, 29)" fill-opacity="0.43"/><path d="M6,126L32,113L5,106Z" fill="rgb(255, 255, 255)" fill-opacity="0.59"/><ellipse cx="90" cy="7" rx="6" ry="13" fill="rgb(254, 254, 253)" fill-opacity="0.57"/><path d="M101,59L102,94L118,59Z" fill="rgb(255, 255, 255)" fill-opacity="0.78"/><ellipse cx="95" cy="64" rx="5" ry="13" fill="rgb(242, 199, 1)" fill-opacity="0.50"/><ellipse cx="94" cy="5" rx="12" ry="15" fill="rgb(255, 255, 255)" fill-opacity="0.50"/><ellipse cx="87" cy="42" rx="2" ry="12" fill="rgb(231, 197, 6)" fill-opacity="0.50"/><path d="M78,17L78,43L85,33Z" fill="rgb(237, 217, 22)" fill-opacity="0.53"/><ellipse cx="87" cy="77" rx="8" ry="14" fill="rgb(247, 200, 0)" fill-opacity="0.54"/><path d="M5,104L7,101L25,105Z" fill="rgb(231, 180, 26)" fill-opacity="0.57"/><path d="M16,72L15,71L7,72Z" fill="rgb(255, 255, 255)" fill-opacity="0.50"/><path d="M97,95L96,79L112,80Z" fill="rgb(255, 255, 255)" fill-opacity="0.62"/><path d="M6,97L3,103L5,101Z" fill="rgb(92, 38, 13)" fill-opacity="0.48"/><path d="M93,36L94,26L100,35Z" fill="rgb(210, 196, 15)" fill-opacity="0.58"/><path d="M69,15L76,0L70,6Z" fill="rgb(160, 97, 41)" fill-opacity="0.54"/><path d="M49,66L71,24L59,53Z" fill="rgb(221, 172, 5)" fill-opacity="0.65"/><path d="M6,102L25,89L9,97Z" fill="rgb(246, 212, 28)" fill-opacity="0.58"/><path d="M103,80L96,83L103,62Z" fill="rgb(255, 255, 255)" fill-opacity="0.67"/><path d="M9,96L-2,96L9,94Z" fill="rgb(255, 255, 255)" fill-opacity="0.57"/><path d="M6,74L-14,74L-11,58Z" fill="rgb(255, 255, 255)" fill-opacity="0.58"/><path d="M84,14L81,12L92,26Z" fill="rgb(182, 188, 21)" fill-opacity="0.46"/><path d="M38,109L21,113L42,105Z" fill="rgb(255, 255, 255)" fill-opacity="0.50"/><ellipse cx="7" cy="126" rx="17" ry="11" fill="rgb(255, 255, 255)" fill-opacity="0.50"/><path d="M50,127L50,113L33,127Z" fill="rgb(249, 199, 0)" fill-opacity="0.86"/><path d="M16,72L7,74L12,75Z" fill="rgb(241, 195, 0)" fill-opacity="0.54"/><path d="M14,109L27,109L37,106Z" fill="rgb(235, 181, 18)" fill-opacity="0.58"/><path d="M39,57L44,3L46,55Z" fill="rgb(254, 254, 254)" fill-opacity="0.83"/><path d="M81,1L77,-15L68,0Z" fill="rgb(255, 255, 254)" fill-opacity="0.38"/><path d="M31,75L29,67L44,58Z" fill="rgb(242, 200, 13)" fill-opacity="0.51"/><path d="M74,21L66,33L72,18Z" fill="rgb(200, 191, 22)" fill-opacity="0.43"/><ellipse cx="88" cy="62" rx="4" ry="14" fill="rgb(240, 199, 4)" fill-opacity="0.53"/><ellipse cx="92" cy="78" rx="2" ry="10" fill="rgb(246, 200, 0)" fill-opacity="0.52"/><path d="M101,8L79,6L76,-2Z" fill="rgb(254, 253, 253)" fill-opacity="0.77"/><path d="M73,16L67,12L77,13Z" fill="rgb(132, 83, 38)" fill-opacity="0.49"/><path d="M8,86L1,81L-7,81Z" fill="rgb(255, 254, 254)" fill-opacity="0.41"/><path d="M-6,116L18,110L4,105Z" fill="rgb(255, 255, 255)" fill-opacity="0.55"/><ellipse cx="20" cy="83" rx="12" ry="6" fill="rgb(233, 170, 0)" fill-opacity="0.47"/><ellipse cx="87" cy="7" rx="7" ry="2" fill="rgb(255, 255, 255)" fill-opacity="0.52"/><path d="M22,125L-5,127L45,130Z" fill="rgb(255, 254, 250)" fill-opacity="0.53"/><ellipse cx="10" cy="90" rx="11" ry="1" fill="rgb(255, 255, 255)" fill-opacity="0.75"/><path d="M80,6L74,5L77,12Z" fill="rgb(120, 75, 24)" fill-opacity="0.47"/><ellipse cx="53" cy="11" rx="15" ry="20" fill="rgb(255, 255, 255)" fill-opacity="0.51"/><path d="M99,73L97,56L57,107Z" fill="rgb(246, 199, 1)" fill-opacity="0.61"/><ellipse cx="3" cy="112" rx="19" ry="4" fill="rgb(255, 255, 255)" fill-opacity="0.50"/><path d="M31,96L46,74L13,99Z" fill="rgb(246, 213, 33)" fill-opacity="0.56"/><path d="M30,94L18,108L37,107Z" fill="rgb(237, 187, 31)" fill-opacity="0.61"/><path d="M33,108L14,128L25,111Z" fill="rgb(255, 255, 254)" fill-opacity="0.63"/><path d="M82,68L70,67L73,87Z" fill="rgb(251, 219, 17)" fill-opacity="0.54"/><path d="M62,37L50,50L50,60Z" fill="rgb(239, 200, 11)" fill-opacity="0.53"/><ellipse cx="20" cy="80" rx="18" ry="4" fill="rgb(233, 172, 1)" fill-opacity="0.51"/><ellipse cx="74" cy="98" rx="9" ry="9" fill="rgb(250, 200, 0)" fill-opacity="0.50"/><path d="M46,66L58,47L31,66Z" fill="rgb(241, 199, 17)" fill-opacity="0.58"/><ellipse cx="92" cy="109" rx="3" ry="20" fill="rgb(255, 254, 254)" fill-opacity="0.49"/><path d="M88,76L88,96L64,99Z" fill="rgb(248, 199, 0)" fill-opacity="0.72"/><path d="M78,29L83,27L77,15Z" fill="rgb(227, 216, 25)" fill-opacity="0.56"/><ellipse cx="72" cy="125" rx="14" ry="5" fill="rgb(255, 255, 255)" fill-opacity="0.50"/><path d="M57,77L62,53L33,88Z" fill="rgb(245, 212, 33)" fill-opacity="0.56"/><path d="M3,73L11,73L47,40Z" fill="rgb(255, 255, 255)" fill-opacity="0.72"/><ellipse cx="74" cy="36" rx="1" ry="9" fill="rgb(207, 187, 33)" fill-opacity="0.58"/><path d="M100,67L100,81L110,55Z" fill="rgb(255, 255, 255)" fill-opacity="0.56"/><path d="M35,124L31,138L53,121Z" fill="rgb(248, 200, 0)" fill-opacity="0.58"/><ellipse cx="52" cy="127" rx="2" ry="1" fill="rgb(255, 255, 255)" fill-opacity="0.90"/><path d="M-2,76L-5,78L6,80Z" fill="rgb(140, 81, 0)" fill-opacity="0.46"/><ellipse cx="8" cy="76" rx="5" ry="3" fill="rgb(241, 194, 11)" fill-opacity="0.48"/><ellipse cx="67" cy="44" rx="4" ry="5" fill="rgb(239, 215, 34)" fill-opacity="0.50"/><ellipse cx="94" cy="58" rx="7" ry="18" fill="rgb(238, 199, 5)" fill-opacity="0.52"/><path d="M100,34L87,41L99,51Z" fill="rgb(224, 198, 9)" fill-opacity="0.54"/><ellipse cx="35" cy="66" rx="4" ry="2" fill="rgb(243, 200, 18)" fill-opacity="0.47"/><path d="M62,121L81,104L55,106Z" fill="rgb(248, 199, 0)" fill-opacity="0.67"/><ellipse cx="23" cy="49" rx="7" ry="20" fill="rgb(255, 255, 255)" fill-opacity="0.52"/><path d="M47,99L6,100L41,105Z" fill="rgb(237, 186, 31)" fill-opacity="0.63"/><ellipse cx="16" cy="103" rx="9" ry="5" fill="rgb(238, 189, 33)" fill-opacity="0.53"/><ellipse cx="21" cy="124" rx="3" ry="1" fill="rgb(254, 253, 252)" fill-opacity="0.55"/><ellipse cx="81" cy="89" rx="10" ry="5" fill="rgb(248, 200, 0)" fill-opacity="0.50"/><path d="M16,100L8,99L31,85Z" fill="rgb(245, 212, 32)" fill-opacity="0.51"/><ellipse cx="55" cy="20" rx="14" ry="8" fill="rgb(255, 255, 255)" fill-opacity="0.52"/><path d="M57,91L34,108L9,100Z" fill="rgb(237, 188, 31)" fill-opacity="0.67"/><path d="M109,14L84,-1L85,16Z" fill="rgb(255, 255, 255)" fill-opacity="0.81"/><path d="M56,66L50,65L42,55Z" fill="rgb(238, 190, 14)" fill-opacity="0.53"/><ellipse cx="24" cy="47" rx="19" ry="19" fill="rgb(255, 255, 255)" fill-opacity="0.52"/><ellipse cx="99" cy="16" rx="4" ry="15" fill="rgb(254, 254, 253)" fill-opacity="0.50"/><ellipse cx="10" cy="127" rx="8" ry="20" fill="rgb(255, 255, 254)" fill-opacity="0.54"/><path d="M85,14L74,16L85,17Z" fill="rgb(186, 192, 16)" fill-opacity="0.53"/><path d="M62,68L69,50L49,69Z" fill="rgb(244, 213, 33)" fill-opacity="0.64"/><path d="M8,104L6,102L6,98Z" fill="rgb(247, 199, 30)" fill-opacity="0.64"/><ellipse cx="0" cy="93" rx="3" ry="13" fill="rgb(255, 255, 255)" fill-opacity="0.60"/><ellipse cx="93" cy="1" rx="12" ry="18" fill="rgb(255, 255, 255)" fill-opacity="0.52"/><path d="M53,79L33,94L63,49Z" fill="rgb(246, 214, 33)" fill-opacity="0.56"/><ellipse cx="97" cy="12" rx="14" ry="3" fill="rgb(255, 255, 255)" fill-opacity="0.50"/><path d="M86,19L98,12L102,18Z" fill="rgb(254, 254, 253)" fill-opacity="0.47"/><path d="M30,126L29,169L-1,126Z" fill="rgb(255, 255, 255)" fill-opacity="1.00"/><ellipse cx="11" cy="119" rx="12" ry="8" fill="rgb(255, 255, 255)" fill-opacity="0.48"/><ellipse cx="90" cy="116" rx="15" ry="13" fill="rgb(255, 255, 255)" fill-opacity="0.50"/><ellipse cx="2" cy="63" rx="9" ry="11" fill="rgb(255, 255, 255)" fill-opacity="0.50"/><path d="M59,42L55,42L49,58Z" fill="rgb(239, 200, 16)" fill-opacity="0.53"/><ellipse cx="78" cy="98" rx="7" ry="5" fill="rgb(249, 200, 2)" fill-opacity="0.50"/><path d="M66,119L67,111L43,119Z" fill="rgb(249, 199, 0)" fill-opacity="0.76"/><path d="M34,127L18,145L-3,127Z" fill="rgb(255, 254, 254)" fill-opacity="1.00"/><path d="M33,48L43,55L35,63Z" fill="rgb(255, 255, 255)" fill-opacity="0.64"/><ellipse cx="30" cy="69" rx="4" ry="2" fill="rgb(242, 199, 18)" fill-opacity="0.53"/></svg>