<?xml version="1.0" encoding="utf-8"?>
<!-- Generator: Adobe Illustrator 22.0.0, SVG Export Plug-In . SVG Version: 6.00 Build 0)  -->
<svg version="1.1" id="Calque_1" xmlns="http://www.w3.org/2000/svg" xmlns:xlink="http://www.w3.org/1999/xlink" x="0px" y="0px"
	 viewBox="0 0 1105 1105" style="enable-background:new 0 0 1105 1105;" xml:space="preserve">
<style type="text/css">
	.st0{fill:none;}
	.st1{fill:#242400;}
	.st2{fill:#724210;}
	.st3{fill:#8D5822;}
	.st4{fill:#8A6F0F;}
	.st5{fill:#B07F18;}
	.st6{fill:#A6A51B;}
	.st7{fill:#C39318;}
	.st8{fill:#E9AB00;}
	.st9{fill:#F9C800;}
</style>
<g id="svgg">
	<path id="path0" class="st0" d="M245.9,301.6"/>
	<path id="path1" class="st1" d="M760.9,71.4c0.5,0.3,1,0.7,0.9,1c0,0.2,0,0.2,0.2-0.1c0.2-0.4-1.5-1.8-2-1.6
		C759.9,70.8,760.3,71.1,760.9,71.4"/>
	<path id="path2" class="st1" d="M245.9,301.6"/>
	<path id="path3" class="st1" d="M245.9,301.6"/>
	<path id="path6" class="st2" d="M698.7,41.8c0.3,0.5,0.9,2.4,1.4,4.2c0.5,1.9,1.4,5.1,2,7.2s1.2,4.2,1.2,4.6
		c0.1,0.4,0.7,2.7,1.4,5.1c0.7,2.4,1.9,6.5,2.6,9.2c0.7,2.7,1.9,6.9,2.6,9.4c0.7,2.5,1.3,4.8,1.4,5.1c0,0.3,0.6,2.3,1.3,4.5
		c0.7,2.1,1.2,4.3,1.3,4.7c0.1,0.4,0.6,2.5,1.3,4.7c0.6,2.2,1.2,4.3,1.3,4.7c0.2,1.7,1.6,5.9,2.1,6.2c0.6,0.4,6.7-0.4,9.4-1.3
		c12.7-4.1,24.7-16.8,32.5-34.3c0.6-1.3,1.2-2.5,1.3-2.6c0.7-0.4-1.6-2.7-2.6-2.5c-0.2,0-0.4-0.1-0.5-0.2c-0.1-0.2-1.1-0.7-2.2-1.2
		c-1.1-0.5-3.6-1.7-5.6-2.7c-2-1-4.6-2.3-5.8-2.9c-1.2-0.6-5.9-2.9-10.4-5c-4.5-2.2-8.7-4.2-9.5-4.6c-0.7-0.3-3-1.4-4.9-2.4
		c-2-1-4.1-2-4.8-2.3c-0.7-0.3-2.2-1.1-3.4-1.7C698.4,40.9,698.1,40.7,698.7,41.8 M698.7,107.7c0,0.8,0,2.5,0.1,3.9
		c0,1.4,0.1,2.6,0.2,2.7c0.1,0.1,0.1,0.4,0,0.5c-0.2,0.3-0.2,2.9,0.1,7.9c0.1,1.5,0.1,2.8,0,3c-0.1,0.2,0,1.6,0.1,3.1
		c0.1,1.6,0.1,3,0.1,3.1c0,0.1,0,2.7,0.1,5.7l0.1,5.4l1.1,0.2c12,2.2,27.2-3.6,37.3-14c2-2.1,2.1-1.8-1.5-4
		c-1.6-0.9-7.6-4.4-13.3-7.8c-8.5-5-10.9-6.2-13-6.8c-1.4-0.4-4.4-1.4-6.6-2.4c-2.2-0.9-4.1-1.8-4.3-1.8
		C698.8,106.4,698.6,106.9,698.7,107.7 M534.1,730.4c-1.2,5.2-2.6,11-3,12.8c-0.4,1.8-0.9,3.7-1.1,4.2c-0.4,0.9-0.4,0.9,7.3,1.5
		c9.8,0.7,11.2,0.7,10.7-0.2c-0.2-0.3-1.9-4.4-3.8-9c-5-12.4-7.7-18.9-7.8-18.9C536.4,720.9,535.4,725.2,534.1,730.4 M634.4,840.9
		c0,1.2,0,3.9-0.1,11.2c0,1.2,0,4.7-0.1,7.9c0,3.2,0,6.1,0.1,6.6c0.1,0.5,0,0.9-0.1,1c-0.1,0.1-0.1,0.9-0.1,1.9c0.1,1,0.1,2.1,0,2.6
		c-0.2,1.1,0.2,1.1,12.3-1.5c1.6-0.4,3.4-0.7,3.9-0.8c0.5-0.1,1.3-0.2,1.7-0.3c0.5-0.1,1.3-0.3,1.8-0.5l1-0.4l-2.3-3.3
		c-1.3-1.8-5.5-7.9-9.3-13.5c-3.8-5.6-7.4-10.6-7.9-11.2l-0.9-1L634.4,840.9 M824.1,887.4c0.1,0.2,1.5,5.8,3.2,12.3
		c1.7,6.5,3.1,12,3.2,12.1c0.1,0.1,0.2,0.8,0.3,1.5c0.1,0.7,0.6,2.8,1.2,4.8c0.5,2,1,4.1,1,4.7l0.1,1l11-5.4c6.1-3,11-5.5,11-5.6
		s-1.4-1.4-3.1-2.8c-1.7-1.4-5.1-4.3-7.4-6.3c-4.1-3.5-12-10.1-16.4-13.8c-1.1-0.9-2.4-2.1-2.9-2.5
		C824.6,886.6,823.9,886.5,824.1,887.4 M245.9,301.6 M245.9,301.6"/>
	<path id="path8" class="st3" d="M671.5,38.7c-1.3,4.9-2.2,9.1-2.1,9.2c0.1,0.1,0.1,0.2-0.1,0.2c-0.2,0-0.5,0.6-0.6,1.3l-0.2,1.2
		l0.5-1.1c0.3-0.6,0.5-1,0.6-0.9c0,0.1,0.5,1.7,1.1,3.7c0.5,2,1.6,5.6,2.2,8.1c0.7,2.5,1.8,6.5,2.5,9c0.7,2.5,1.3,4.8,1.4,5.3
		c0.1,0.4,0.6,2.5,1.3,4.7c0.7,2.1,1.2,4.3,1.3,4.7c0,0.4,0.6,2.6,1.3,4.7c0.7,2.1,1.5,5.3,2,6.9l0.8,3l-1.1-0.4
		c-0.6-0.2-2.9-1.2-5.2-2.2c-4.7-2.1-4.5-2.2-4.3,2.5c0.2,3.6,0.2,5.1,0.2,8.5c0,1.6,0,2.9,0.1,3c0.1,0.1,0.1,1.1,0.1,2.3
		c-0.1,3.1,0,6.9,0.1,8.3c0.1,1.4,0,1.2,12.9,15.4l4.1,4.5l4,1.2c3.4,1,5.2,1.4,5.2,0.9c-0.1-1.6-0.3-10.6-0.2-10.8
		c0-0.1,0-1.6-0.1-3.1c-0.1-1.6-0.1-3-0.1-3.1c0.1-0.2,0-1.5,0-3c-0.2-5-0.2-7.7-0.1-7.9c0.1-0.1,0.1-0.4,0-0.5
		c-0.1-0.1-0.2-1.3-0.2-2.7c0-1.4,0-3.1-0.1-3.9c0-0.8,0.1-1.3,0.3-1.3c0.2,0.1,2.2,0.9,4.3,1.8c4.8,2.1,6.6,2.5,11.3,3
		c3.5,0.4,4.5,0.3,3.7-0.1c-0.4-0.2-1.8-4.5-2-6.2c-0.1-0.4-0.6-2.5-1.3-4.7c-0.7-2.2-1.2-4.3-1.3-4.7c-0.1-0.4-0.6-2.5-1.3-4.7
		c-0.7-2.1-1.2-4.2-1.3-4.5c0-0.3-0.7-2.6-1.4-5.1c-0.7-2.5-1.9-6.7-2.6-9.4c-0.7-2.7-1.9-6.8-2.6-9.2c-0.7-2.4-1.3-4.6-1.4-5.1
		c-0.1-0.4-0.7-2.7-1.3-5.1c-0.7-2.4-1.7-5.8-2.2-7.7c-0.9-3.2-1.6-4.5-2.2-4.1c-0.1,0.1-0.4,0-0.5-0.2c-0.1-0.2-1.6-1-3.3-1.8
		c-1.7-0.8-4-2-5.3-2.6c-1.2-0.6-3.4-1.7-4.8-2.3c-1.4-0.7-4.1-2-5.9-2.9c-1.9-0.9-3.5-1.6-3.7-1.5C674,29.7,672.8,33.8,671.5,38.7
		 M527.6,711.5c0.3,0.2-3.6,17.7-4,17.7c-0.5,0.1,1.8,7.8,3.9,13.5c0.1,0.4,0.5,1.5,0.8,2.5c1.1,3.9,1.5,3.7,2.7-1.6
		c3.7-16.3,5.3-22.3,5.7-22.4c0.3,0,0.3-0.1,0.1-0.1c-0.2-0.1-0.4-0.5-0.5-1c-0.2-0.9-4-10.3-4.5-11.1c-0.2-0.3-0.7-0.1-2.4,0.9
		C528.3,710.8,527.4,711.5,527.6,711.5 M624.5,831.6l-1.8,2.1l0,4.9c0,2.7,0,5.3-0.1,5.8c0,0.5,0,1.8,0,2.8c0.1,1.1,0,2-0.1,2.1
		c-0.1,0.1-0.2,0.3-0.1,0.5c0.4,0.6,0.1,5.8-0.2,5.8c-0.2,0-0.2,0.2,0,0.4c0.4,0.5,7.2,12,8.9,15.1c1.9,3.6,3.4,3,3.1-1.2
		c-0.1-1.1,0-2,0.1-2.1c0.1-0.1,0.1-0.5,0.1-1c-0.1-0.5-0.1-3.5-0.1-6.6c0-3.2,0.1-6.7,0.1-7.9c0-4,0.1-8.1,0.1-10.5
		c0-2.7-0.7-4.1-5.2-10.2C627,828.5,627.3,828.4,624.5,831.6 M640.8,848.4c0.4,0.7,0.6,0.9,0.5,0.4c-0.2-0.4-0.5-1-0.8-1.2
		C640.2,847.4,640.3,847.8,640.8,848.4 M651,863.3c0.4,0.6,0.6,0.8,0.5,0.4s-0.4-0.8-0.7-1.1C650.6,862.4,650.7,862.7,651,863.3
		 M811,881.2c-1.3,2.2-1.8,3.5-1.6,3.9c0.2,0.3,1,3.3,1.8,6.6c0.8,3.3,2.1,8.4,2.9,11.4c0.8,2.9,1.2,5.4,1.1,5.4
		c-0.2,0,1,1.3,2.5,2.8c1.5,1.5,4.5,4.5,6.7,6.7c7.1,7.1,6.7,6.8,7.8,6.2c1.2-0.6,1.2-1-0.2-5.9c-0.5-2-1.1-4.2-1.2-4.8
		c-0.1-0.7-0.2-1.3-0.3-1.5c-0.2-0.3-6.2-23.7-6.3-24.7c-0.1-0.6-0.9-1.5-3.1-3.3c-1.7-1.4-4-3.4-5.2-4.4
		C813.2,877.1,813.5,877,811,881.2 M245.9,301.6"/>
	<path id="path10" class="st4" d="M668.6,50.4c-0.3,0.9-1,3-1.4,4.7c-0.4,1.7-1.3,4.9-1.9,7.1l-1.1,4l1.2,3.9
		c0.6,2.2,1.2,4.3,1.3,4.7c0.1,0.4,0.7,2.9,1.5,5.4s1.5,5,1.5,5.4c0.1,0.4,0.6,2.3,1.1,4.2c0.6,1.9,1,3.5,1,3.6c0,0.2-0.8,0-4.4-1.5
		c-3.3-1.4-3.2-1.6-3.1,2.6c0,1.9,0.1,5.9,0.2,8.9c0.1,3,0.1,6,0.1,6.7c-0.1,2.4,0.3,3,6.1,9l2.6,2.7l-0.1-1.8
		c-0.2-4.2-0.2-6.7-0.1-8c0.1-0.8,0-1.5,0-1.6c-0.1-0.1-0.1-1.5-0.1-3.1c0-3.3,0-4.8-0.2-8.5c-0.2-4.7-0.4-4.6,4.3-2.5
		c2.3,1,4.6,2,5.2,2.2l1.1,0.4l-0.8-3c-0.4-1.7-1.3-4.8-2-6.9c-0.7-2.2-1.2-4.3-1.3-4.7c0-0.4-0.6-2.5-1.3-4.7
		c-0.7-2.1-1.2-4.3-1.3-4.7c-0.1-0.4-0.7-2.8-1.4-5.3c-0.7-2.5-1.9-6.5-2.5-9C669,46.9,669.5,48.1,668.6,50.4 M522.9,718.8
		c-0.6,2.9-1.2,4.8-1.5,4.6c-0.2-0.2,0.1,1.1,0.7,2.9c0.6,1.7,1.2,3.2,1.4,3.2c0.2,0,1.3-4,2.4-9l2.1-9.1l-2,1.2l-2,1.2L522.9,718.8
		 M621,835.2c-2.2,2.3-2.4,2.7-2.3,5.3c0.1,1.3,0.1,3.9,0.1,5.9c0,3.4,1.9,8.8,3.4,9.1c0.4,0.1,0.6-5.2,0.2-5.7
		c-0.1-0.2-0.1-0.4,0.1-0.5c0.1-0.1,0.2-1.1,0.1-2.2c-0.1-1.1-0.1-2.3,0-2.6c0.1-0.3,0.1-1.3,0.1-2.1c0-0.8,0-3.1,0-5.2
		c0-2.1,0-3.7,0-3.6C622.6,833.6,621.9,834.3,621,835.2 M645.3,854.9c0.4,0.7,0.6,0.9,0.5,0.4c-0.2-0.4-0.5-1-0.8-1.2
		C644.7,853.9,644.9,854.2,645.3,854.9 M807.3,887.7c-1.2,2.2-1.3,2.6-0.8,3.5c0.3,0.6,0.5,1.3,0.5,1.6c0,0.3,0.5,2.3,1.1,4.4
		c0.6,2.2,1,4.2,0.9,4.6c-0.1,0.3,0,0.7,0.2,0.9c0.2,0.2,0.7,0.7,1.1,1.1c1.3,1.4,4.4,4.4,4.8,4.5c0.2,0.1-0.3-2.3-1-5.3
		c-2.4-9.3-4.3-17-4.5-17.7C809.5,884.3,808.9,884.9,807.3,887.7 M245.9,301.6"/>
	<path id="path13" class="st5" d="M664,67c0,0.3-0.9,4-2.1,8.2c-1.2,4.2-2.2,8-2.3,8.4c-0.1,0.4-1.1,4.3-2.3,8.7
		c-1.2,4.4-2.2,8.2-2.3,8.6c-0.1,0.8,0.7,1.8,5.1,6.5c1.7,1.8,3.4,3.6,3.7,3.9c0.6,0.7,1.3,1,0.9,0.4c-0.1-0.2-0.2-1-0.2-1.7
		c0-0.7,0-3.8,0-6.8c-0.1-3-0.2-7-0.2-8.9c-0.1-4.1-0.2-4,3.1-2.6c3.6,1.5,4.3,1.8,4.4,1.5c0-0.1-0.4-1.7-1-3.6
		c-0.6-1.9-1.1-3.7-1.1-4.2c-0.1-0.4-0.7-2.9-1.5-5.4s-1.5-5-1.5-5.4C666.3,72.4,664,65.5,664,67 M519.7,716.9
		c-0.3,0.3-0.2,1.1,0,1.9c0.3,0.8,0.6,2,0.8,2.6c0.8,3,1.2,2.5,2.4-2.7l1.1-4.9l-1.9,1.3C521,715.9,520,716.7,519.7,716.9
		 M629,831.3c0.4,0.7,0.6,0.9,0.5,0.4c-0.2-0.4-0.5-1-0.8-1.2C628.5,830.3,628.6,830.6,629,831.3 M616.3,840.2l-1.9,2.1l1.4,2.6
		c0.7,1.4,1.7,3.2,2.2,3.9l0.9,1.3l0-3.6c0-2,0-4.6-0.1-5.9c0-1.3,0-2.5,0.1-2.7C619.2,837.2,618.4,837.9,616.3,840.2 M634.8,839.7
		c0.4,0.6,0.6,0.8,0.5,0.4c-0.1-0.3-0.4-0.8-0.7-1.1C634.3,838.9,634.4,839.1,634.8,839.7 M639.4,846.3c0.4,0.7,0.6,0.9,0.5,0.4
		c-0.2-0.4-0.5-1-0.8-1.2C638.9,845.3,639,845.7,639.4,846.3 M649.7,861.2c0.4,0.6,0.6,0.8,0.5,0.4c-0.1-0.3-0.4-0.8-0.7-1.1
		C649.2,860.3,649.3,860.6,649.7,861.2 M804.2,893c-1.8,3.1-1.9,2.9,1.5,6.3c3.6,3.6,3.9,3.4,2.5-1.7c-0.6-2.2-1.1-4.3-1.2-4.8
		C806.6,889.9,806.1,889.9,804.2,893 M245.9,301.6 M245.9,301.6"/>
	<path id="path14" class="st6" d="M760,76.7c-0.9,1.9-3,5.9-4.8,8.9l-3.2,5.3l4.3-1.3c2.4-0.7,4.5-1.3,4.7-1.3
		c0.2,0,2.4-0.6,4.7-1.3c2.3-0.7,4.5-1.3,4.7-1.3c0.2,0,1.7-0.4,3.3-0.8c1.6-0.5,4-1.2,5.5-1.6c3.6-0.9,3.9-1.1,2.4-1.7
		c-1.4-0.5-5.6-2.4-13.6-6c-3.4-1.5-6.2-2.7-6.3-2.7C761.7,73.1,760.9,74.8,760,76.7 M709.2,143.9c1,0.4,10.2,8.4,17.4,15.2
		c7.1,6.7,15.8,16,20.9,22.2l2.3,2.9l2.5-0.1c1.4-0.1,3.8-0.1,5.3-0.1c1.5,0,5.2-0.1,8.2-0.1c3-0.1,7.1-0.1,9.3-0.1
		c2.2,0,3.9,0,3.9-0.1c0,0-1-3.2-2.3-6.9c-8.7-26.7-15.1-36.3-30.1-45.4c-3.4-2.1-6.4-3.8-6.5-3.8c-0.2,0-1.4,1-2.7,2.2
		c-7,7-18.2,12.7-26.7,13.7C709.5,143.6,708.9,143.8,709.2,143.9 M752.2,186.9c0.1,0.1,4.1,0.2,7,0.1c0.9,0,1.8,0,1.9,0
		c0.1,0,0.7,0,1.2,0c0.5,0,1.6-0.1,2.3-0.1c0.7,0,2-0.1,2.8,0c1.7,0,4.6,0,7.7-0.1c1.1,0,2.3,0,2.5,0.1c0.2,0.1,0.4,0,0.5-0.1
		c0.1-0.3-0.5-0.3-6.1-0.3c-1.6,0-3.9,0-5.1,0c-5.2,0-9.1,0.1-9.3,0.2c-0.1,0.1-0.8,0.1-1.6,0C754.7,186.5,752.1,186.7,752.2,186.9"
		/>
	<path id="path16" class="st7" d="M633.6,837.8c0.4,0.7,0.6,0.9,0.5,0.4c-0.2-0.4-0.5-1-0.8-1.2C633,836.7,633.1,837.1,633.6,837.8
		 M638.1,844.2c0.4,0.7,0.6,0.9,0.5,0.4c-0.2-0.4-0.5-1-0.8-1.2C637.5,843.2,637.7,843.5,638.1,844.2 M643.8,852.5
		c0.4,0.7,0.6,0.9,0.5,0.4c-0.2-0.4-0.5-1-0.8-1.2C643.2,851.5,643.3,851.8,643.8,852.5 M245.9,301.6"/>
	<path id="path17" class="st8" d="M726.1,179.1c2.4,6.6,3.5,12,5,24.4c1.2,9.7,5.7,53.8,6.8,66.7c1.9,22.2,4.3,52.5,5.6,70.4
		c0.2,2.8,0.8,10.6,1.3,17.4c1.6,20.5,2.1,30.1,2.3,40.5c0.1,2.6,0.1,5.7,0.1,6.7c0.2,8.2-0.3,24.1-1.1,35.9
		c-6.2,85.5-38.3,153.2-102.5,216c-29.1,28.4-72.9,56.3-102.4,65.3c-1.7,0.5-3.2,1-3.2,1.1c0,0.2,3.5,9.1,5.7,14.6
		c1.2,3,2.8,6.8,3.4,8.4c1.3,3.4,1,3.2,6.3,5.5c13.6,6,30.5,8.3,52.3,7.2c3.4-0.2,15.1-1.4,15.4-1.7c0.1-0.1,1.1-0.2,2.3-0.4
		c8.1-1.1,18.5-4.3,32.6-9.9c14.3-5.7,45.6-26.6,49.3-32.9c13.7-23.2,29.4-59.9,40.4-94.3c14.2-44.4,25-97.8,27.8-138.1
		c0.1-1.8,0.4-4.9,0.5-6.9c1.1-14.7,1.2-35.9,0.1-51.8c-1.4-22.2-4.2-41.6-11.8-82.6c-3.8-20.4-5.5-30.7-7.4-44
		c-1.3-9.4-3.2-28.3-3.8-37.9c-0.7-13.2-2.6-25.8-5.9-39.3c-4.7-19.6-11.6-35.6-18.3-42.6C724.8,174.4,724.6,174.9,726.1,179.1
		 M753.4,188.4c7.5,9.1,19.7,28.1,29.1,45.4c2.7,4.9,14.3,28.4,14.3,28.9c0,0.2,1.1,2.8,2.5,5.9c2.6,5.8,3.1,7.1,6.7,16.2
		c9.9,24.9,18.1,56,21.6,81.1c0.2,1.1,0.3,2.1,0.4,2.2c0.4,0.6,3.8,26.8,5.1,38.9c3.9,37.5,4.6,83.9,1.7,109.9
		c-0.1,0.9-0.4,4.1-0.7,7.2c-2.9,31.4-12.4,76.8-20.5,98c-0.2,0.6-1.2,3.4-2.2,6.3c-1.7,4.9-5.6,15.5-7.5,20
		c-0.8,2-4.6,10.9-5.3,12.4c-2.3,5.2-8.1,17.3-11,22.8c-3.4,6.5-4.2,8-7.3,13.4c-5.5,9.7-18.1,30-21.1,33.8
		c-0.5,0.6-1.3,1.7-1.8,2.5c-14.6,22.3-51.7,60.4-81.3,83.5c-11.8,9.2-33.1,23.8-37.1,25.4l-1.7,0.7l8.8,12.8l8.8,12.8l1.9,0.3
		c1,0.2,2.6,0.4,3.6,0.6c2.2,0.4,7.3,0.8,8.4,0.8c0.5,0,1.2,0,1.6,0.1c2.3,0.5,19.1-0.7,21.7-1.6c0.1,0,1.5-0.2,2.9-0.4
		c1.5-0.2,2.8-0.4,2.9-0.5c0.1-0.1,1.3-0.4,2.7-0.6c1.3-0.3,2.7-0.5,3-0.6c0.3-0.1,2.5-0.6,4.9-1.2c3.7-0.9,11.5-3.1,13.5-3.7
		c0.3-0.1,1.1-0.3,1.8-0.5c1.2-0.3,8.5-3,10.3-3.8c0.5-0.2,1.2-0.5,1.7-0.6c0.5-0.2,1.2-0.4,1.6-0.6c0.4-0.2,1-0.4,1.4-0.5
		c1-0.3,10-4.3,12.3-5.6c1.1-0.6,2.2-1.1,2.3-1.1c1.8,0,25.2-14.9,32-20.3c0.7-0.6,1.9-1.5,2.7-2.1c0.8-0.6,3.6-2.9,6.2-5.2
		c2.6-2.3,5.2-4.5,5.8-4.9c0.5-0.5,1.5-1.4,2.1-2c0.6-0.6,2.6-2.5,4.3-4.2c4.3-4.2,4.4-4.3,4.9-4.8c0.2-0.3,0.6-0.7,0.9-0.9
		c1.3-1.2,8-8.5,9.2-10c0.8-1,1.7-2,2.1-2.3s0.8-0.9,1-1.2s0.4-0.6,0.5-0.5c0.1,0.1,0.2-0.1,0.3-0.5c0.1-0.4,0.3-0.6,0.4-0.4
		c0.1,0.1,0.2,0,0.3-0.3c0.1-0.3,0.3-0.7,0.5-0.8c0.7-0.6,4.4-5.1,4.6-5.6c0.1-0.3,0.2-0.5,0.3-0.4c0.1,0.1,0.5-0.3,0.9-1
		c0.5-0.7,1.4-1.9,2.1-2.8c0.7-0.9,1.4-1.9,1.6-2.1c0.2-0.3,0.4-0.6,0.4-0.6c0.1-0.1,0.3-0.4,0.5-0.6c0.2-0.3,1.4-1.8,2.6-3.5
		c1.3-1.7,2.4-3.2,2.5-3.4c0.1-0.2,0.6-0.9,1.1-1.6c0.5-0.6,1.3-1.7,1.7-2.4c0.4-0.7,1.7-2.6,3-4.3c1.2-1.7,2.7-3.9,3.3-4.9
		c0.6-1,1.2-1.8,1.3-1.9c0.5-0.3,11-17.3,17-27.6c4.3-7.4,11.6-38.1,15.4-64.9c0.2-1.5,0.6-4.6,1-6.7c0.3-2.2,0.6-4.5,0.7-5.1
		c1.4-9.5,4.2-38,4.5-46.1c0-0.9,0.2-3.9,0.4-6.8c3.5-59.4-0.9-123.8-12.2-180.8c-5.3-26.9-17.5-60-35.9-97.3c-2-4-4.2-8.6-5-10.2
		c-1.8-3.7-10.1-19.9-20.2-39.1c-4.2-8.1-8.3-16-8.9-17.4s-3.5-7.1-6.3-12.5c-2.8-5.5-5.2-10.3-5.3-10.7c-0.2-0.4-2.2-4.8-4.5-9.7
		c-2.3-4.9-4.4-9.6-4.7-10.4c-0.3-0.9-1.9-4.6-3.5-8.4c-1.6-3.8-3.4-8.2-3.9-9.8c-1.1-3.1-1.6-3.6-2.9-2.8c-0.2,0.1-0.5,0.1-0.6,0
		c-0.1-0.1-1.2-0.2-2.3-0.1c-3.1,0.1-6,0.2-7.7,0.1c-0.9,0-2.1,0-2.8,0c-0.7,0-1.7,0.1-2.3,0.1c-0.5,0-1.1,0-1.2,0
		c-0.1,0-1.2,0-2.3,0c-1.1,0.1-2.4,0.1-2.7,0c-0.4,0-1.4,0-2.3,0l-1.6,0L753.4,188.4 M632.2,835.6c0.4,0.7,0.6,0.9,0.5,0.4
		c-0.2-0.4-0.5-1-0.8-1.2C631.7,834.6,631.8,835,632.2,835.6"/>
	<path id="path18" class="st9" d="M720.2,115.6c43.7,25.5,45.6,27.5,56.5,61.1c1.2,3.8,2.2,6.9,2.3,6.9c0,0-1.7,0.1-3.9,0.1
		c-2.2,0-6.3,0-9.3,0.1c-3,0.1-6.6,0.1-8.2,0.1c-1.5,0-3.9,0.1-5.3,0.1l-2.5,0.1l-2.3-2.9c-8.8-10.7-20.8-22.7-35.8-35.6l-2.1-1.8
		l-3.6,0c-2.3,0-5.8-0.5-9.2-1.3l-5.6-1.3l0.9,1.4c3.3,5.1,17.2,29.3,17.9,30.9c3,7.5,3.8,16.7,2.6,30.4c-0.2,2-2.1,15.2-3,20.3
		c-1.4,8.2-2.3,17.2-2.8,28.7c-0.2,5.4-0.3,12.6-0.2,19.6c0,2.2,0.1,4.7,0.1,5.5c0,2.6,0.8,18.5,1.3,26.3
		c1.8,27.1,2.7,46.6,2.8,58.3c0,1.6,0,3.8,0,4.9c0.1,6.7-0.4,18.6-0.8,22.5c-0.1,0.4-0.1,1.8-0.2,3.1c-0.1,1.3-0.1,2.4-0.2,2.6
		c-0.1,0.2-0.2,1.1-0.2,2c-0.1,1-0.1,1.9-0.2,2c0,0.1-0.3,2-0.5,4.1c-0.5,4-0.6,4.5-1.4,9.6c-1.8,10.7-4.4,22.6-6.9,32.2
		c-1.1,4.1-2.1,8.1-2.3,8.9c-0.7,2.8-1.7,6.1-2.4,8.5c-0.4,1.3-1,3.1-1.2,4c-0.3,0.9-1.2,3.8-2.1,6.5c-0.9,2.7-1.7,5.3-1.9,5.8
		c-0.2,0.5-0.6,1.8-1,2.8c-0.4,1-0.7,2-0.7,2.1c0,0.2-1,2.9-2.2,6.2c-1.2,3.3-2.3,6.2-2.4,6.6c-0.3,0.8-4.3,11.2-5.2,13.5
		c-2,4.9-2.8,6.9-4.3,10.3c-0.9,2.1-1.7,4-1.8,4.2c-0.1,0.2-0.9,2.2-1.9,4.3c-1,2.1-2.6,5.7-3.6,8c-2.7,5.8-9.4,19.4-12.6,25.2
		c-5.4,9.9-13.7,24.1-17.4,29.9c-0.8,1.3-2.3,3.6-3.3,5.1c-1,1.5-1.8,2.8-1.9,2.9s-0.7,0.9-1.3,1.8c-9.6,15.1-33.2,43.4-51.5,61.8
		c-1.8,1.9-4.3,4.4-5.6,5.6c-2.4,2.4-9.6,9.3-13.1,12.4c-1.2,1.1-5.1,4.2-8.7,7c-3.6,2.8-7,5.5-7.5,6c-0.5,0.5-1.6,1.5-2.4,2.2
		c-2.2,1.8-6.4,6-7.2,7.1c-0.4,0.5-1.2,1.7-1.9,2.5c-1.2,1.5-1.2,1.6-0.5,3c0.6,1.3,4.4,10.8,5.1,12.8c0.2,0.6,0.5,0.7,2.2,0.2
		c30.2-8.9,74.2-36.7,103.9-65.7c74.7-73.1,106.5-153.5,103.4-261.7c-0.3-9.3-0.9-19.1-2.2-37.3c-0.5-6.8-1.1-14.6-1.3-17.4
		c-5-70.4-11.9-140.9-15.1-154c-0.5-2.1-1.6-5.7-2.4-8s-1.5-4.3-1.6-4.5c-0.4-1.2,4.8,5.1,7.1,8.7c10,15.7,18.1,46.8,19.7,75.8
		c0.5,9.6,2.4,28.5,3.8,37.9c1.9,13.3,3.6,23.6,7.4,44c7.6,41,10.3,60.4,11.8,82.6c1,15.9,1,37.1-0.1,51.8c-0.1,2-0.4,5.1-0.5,6.9
		c-5.3,74.9-31.3,165-65.9,228.2c-10,18.3-26.8,45.6-37,60.1c-12.3,17.5-17.4,24.1-25.2,32.7c-7.1,7.9-14.3,17.9-16.9,23.5
		c-1.1,2.3-1.1,2.3-0.1,3.6c0.5,0.7,2.8,4,5,7.2l4,5.9l1.5-0.6c2.3-0.9,22.5-14.3,28.8-19c10-7.5,11.9-9.1,24-19.5
		c25.7-22,53.5-51.9,65.6-70.4c0.5-0.8,1.3-1.9,1.8-2.5c1.7-2.1,6.9-10.3,12.8-19.8c8-13,13.2-22.5,19.7-35.7
		c2.4-4.9,5.4-11.2,6.8-14.4c0.7-1.5,4.5-10.5,5.3-12.4c1.9-4.5,5.9-15.1,7.5-20c1-2.9,2-5.7,2.2-6.3c8.1-21.3,17.6-66.6,20.5-98
		c0.3-3.1,0.6-6.3,0.7-7.2c2.9-26,2.2-72.4-1.7-109.9c-1.3-12.1-4.7-38.3-5.1-38.9c0-0.1-0.2-1.1-0.4-2.2
		c-3.5-25.1-11.7-56.2-21.6-81.1c-3.6-9.1-4.1-10.4-6.7-16.2c-1.4-3.1-2.5-5.7-2.5-5.9c0-0.5-11.7-24-14.3-28.9
		c-9.5-17.4-20.5-34.6-29.1-45.4l-1.3-1.6l1.3-0.1c0.7-0.1,1.7-0.1,2,0c0.4,0.1,1.3,0.1,2.1,0c0.8,0,3.1-0.1,5.2-0.1
		c2.1,0,4.8-0.1,6.1-0.1c1.3,0,3.8,0,5.6-0.1c1.8,0,3.7,0,4.1-0.1c0.4,0,0.9,0,1,0c0.1,0,0.7,1.4,1.3,3.1c0.6,1.7,2.4,6.2,4,9.9
		c1.6,3.8,3.1,7.5,3.5,8.4c0.3,0.9,2.4,5.5,4.7,10.4c2.3,4.9,4.3,9.2,4.5,9.7c0.2,0.4,2.6,5.3,5.3,10.7c2.8,5.5,5.6,11.1,6.3,12.5
		s4.7,9.3,8.9,17.4c10,19.2,18.4,35.4,20.2,39.1c0.8,1.6,3,6.2,5,10.2c18.4,37.3,30.6,70.4,35.9,97.3
		c11.3,57.1,15.7,121.4,12.2,180.8c-0.2,2.9-0.3,5.9-0.4,6.8c-0.3,8.1-3.1,36.6-4.5,46.1c-0.1,0.6-0.4,2.9-0.7,5.1
		c-0.3,2.2-0.7,5.2-1,6.7c-0.6,4.1-2.9,17.6-4.2,23.8c-2.4,12.2-5.8,26.6-9.2,39c-2.4,8.7-3.9,14-5.2,18.2
		c-5.4,17.5-5.3,17.4-10.3,31.8c-4.1,11.8-10.2,27.9-14.8,39c-0.8,1.9-1.6,3.9-1.8,4.5c-0.6,1.6-5.5,12.5-6.6,14.7
		c-0.5,1-1.8,3.5-2.8,5.5c-8.7,16.7-13.9,28.1-14.9,33c-0.1,0.4-0.3,1.4-0.6,2.1c-0.2,0.7-0.5,2.1-0.7,3.1l-0.3,1.7l4.8,4.1
		c2.6,2.2,7.6,6.4,11,9.3c3.4,2.8,8.1,6.8,10.5,8.8c2.4,2,5.6,4.8,7.3,6.2c1.7,1.4,4.2,3.5,5.6,4.7c3,2.6,2.8,2.5,8.3,1.9
		c14.2-1.6,27.5-5.9,47.4-15.4c11.6-5.6,38.4-22.8,46.9-30.2c1.1-0.9,4.1-3.6,6.9-5.9c2.7-2.3,5.9-5.2,7.1-6.4
		c1.2-1.2,3.7-3.7,5.6-5.6c7-7,19.5-21.5,22-25.4c0.2-0.4,1.3-1.8,2.3-3.1c6.4-8.4,16.1-23.7,22.6-35.9c5.2-9.6,5-9.2,9.9-19.4
		c0.2-0.5,0.5-1.1,0.6-1.4c0.1-0.2,1.5-3.4,3.1-7.1c2.8-6.2,4-9,5.4-12.6c2.2-5.4,5.4-13.9,7-18.4c0.6-1.8,1.4-4,1.8-4.9
		c0.8-2.2,3.6-10.4,4.2-12.4c0.3-0.9,0.8-2.3,1.1-3.3c0.5-1.5,2.3-7.2,3.6-11.8c0.3-1,0.9-3.2,1.4-4.8c0.5-1.6,1.5-5.1,2.2-7.8
		c0.7-2.7,1.6-5.7,1.9-6.7c4.9-17.7,11.7-50.7,14.8-71.5c1.1-7.5,2.8-20.2,3.2-24.9c0.1-0.9,0.3-2.5,0.4-3.4
		c0.1-0.9,0.3-2.2,0.3-2.8c0-0.6,0.3-4,0.7-7.4c0.3-3.4,0.8-8.8,1-12c0.2-3.2,0.4-6.1,0.5-6.4c0.1-1,0.7-11.7,0.9-17.5
		c0.2-5.3,0.5-20.3,0.4-22.6c0-0.7-0.1-4.2-0.1-7.8c0-6.4-0.1-10.9-0.4-16.3c-0.1-1.5-0.1-3.4-0.2-4.1c-0.1-3.7-0.3-7-0.5-9.8
		c-0.1-1.7-0.3-4.9-0.5-7.1c-0.3-4.6-2.8-29.1-3.4-33.9c-0.7-5.4-2.6-17.4-2.9-18.7c-0.2-0.7-0.4-2.1-0.5-3s-0.7-4.2-1.3-7.2
		c-0.6-3-1.2-6.3-1.4-7.2c-0.4-2.1-1.9-9-2.9-12.9c-0.4-1.5-0.7-3.1-0.8-3.5c-0.1-0.4-0.7-2.9-1.4-5.5c-3.3-12.6-5.9-21.3-8.6-29.3
		c-0.9-2.7-1.8-5.4-1.9-6c-0.4-1.6-4.2-11.7-6.8-18.1c-1.2-3-2.7-6.8-3.4-8.4c-1.7-4.3-14.7-32.6-20.3-44.2
		c-3.1-6.4-8-16.1-12.5-24.8c-4.8-9.1-24.1-39.5-29.4-46.3c-12-15.2-20.3-24.7-29.6-33.5c-2.9-2.8-5.5-5.1-5.6-5.2
		c-0.2-0.1-1.8-1.4-3.6-3c-1.8-1.6-3.5-2.9-3.8-3c-0.2-0.1-0.8-0.5-1.2-0.9c-10.7-10.4-44.9-29.5-62.5-34.9
		c-11.7-3.6-19.6-5.4-32.1-7.4c-12.8-2-23.1-4.5-30.3-7.1c-1.8-0.7-5.9-2.1-9.1-3.1c-6-1.9-9.1-3.1-14.5-5.4
		c-1.8-0.7-3.3-1.3-3.4-1.2c-0.1,0.1-0.4-0.1-0.5-0.3s-0.7-0.5-1.2-0.6c-0.5-0.1-1.1-0.3-1.2-0.6c-0.2-0.2-0.3-0.3-0.3-0.1
		c-0.1,0.4-1.5-0.1-1.9-0.8c-0.2-0.3-0.6-0.5-0.9-0.4c-0.3,0.1-0.9-0.1-1.3-0.4c-0.4-0.3-1.2-0.3-2.2,0c-2.8,0.9-10.1,2.9-10.9,3
		c-0.4,0.1-2.6,0.6-4.7,1.3c-2.2,0.6-4.3,1.2-4.7,1.3c-0.4,0.1-2.6,0.6-4.8,1.3l-4,1.2l-3.4,4.1c-5.1,6.1-5.8,6.7-12.5,10.9
		l-5.9,3.7l-4,1c-4.2,1-7.1,1.3-10.3,1c-1-0.1-2.1-0.2-2.5-0.1C713.4,111.5,716.3,113.3,720.2,115.6"/>
	<path id="path19" class="st9" d="M245.9,301.6"/>
</g>
</svg>
